<svg width="1615" height="1664" viewBox="0 0 1615 1664" fill="none" xmlns="http://www.w3.org/2000/svg">
<path d="M1041.5 1663V1081L1613 1372.5L1041.5 1663Z" fill="#FB4A1E" stroke="#FB4A1E"/>
<ellipse cx="748.5" cy="1052" rx="293.5" ry="291" fill="#FB4A1E"/>
<path d="M0.811488 580.5L292.5 1.11192L584.189 580.5L0.811488 580.5Z" fill="#FB4A1E" stroke="#121212"/>
<path d="M112.812 940.5L293.5 582.111L474.188 940.5L112.812 940.5Z" fill="#F2F1EE" stroke="#F2F1EE"/>
<path d="M748.5 181.5C910.372 181.767 1041.5 311.284 1041.5 471C1041.5 630.716 910.372 760.233 748.5 760.5L748.5 181.5Z" fill="#F2F1EE" stroke="#F2F1EE"/>
<path d="M105.64 522.68C105.64 518.2 106.52 514.227 108.28 510.76C110.093 507.293 112.52 504.627 115.56 502.76C118.653 500.893 122.093 499.96 125.88 499.96C129.187 499.96 132.067 500.627 134.52 501.96C137.027 503.293 139.027 504.973 140.52 507V500.68H151.8V545H140.52V538.52C139.08 540.6 137.08 542.333 134.52 543.72C132.013 545.053 129.107 545.72 125.8 545.72C122.067 545.72 118.653 544.76 115.56 542.84C112.52 540.92 110.093 538.227 108.28 534.76C106.52 531.24 105.64 527.213 105.64 522.68ZM140.52 522.84C140.52 520.12 139.987 517.8 138.92 515.88C137.853 513.907 136.413 512.413 134.6 511.4C132.787 510.333 130.84 509.8 128.76 509.8C126.68 509.8 124.76 510.307 123 511.32C121.24 512.333 119.8 513.827 118.68 515.8C117.613 517.72 117.08 520.013 117.08 522.68C117.08 525.347 117.613 527.693 118.68 529.72C119.8 531.693 121.24 533.213 123 534.28C124.813 535.347 126.733 535.88 128.76 535.88C130.84 535.88 132.787 535.373 134.6 534.36C136.413 533.293 137.853 531.8 138.92 529.88C139.987 527.907 140.52 525.56 140.52 522.84ZM204.579 500.68V545H193.299V539.4C191.859 541.32 189.965 542.84 187.619 543.96C185.325 545.027 182.819 545.56 180.099 545.56C176.632 545.56 173.565 544.84 170.899 543.4C168.232 541.907 166.125 539.747 164.579 536.92C163.085 534.04 162.339 530.627 162.339 526.68V500.68H173.539V525.08C173.539 528.6 174.419 531.32 176.179 533.24C177.939 535.107 180.339 536.04 183.379 536.04C186.472 536.04 188.899 535.107 190.659 533.24C192.419 531.32 193.299 528.6 193.299 525.08V500.68H204.579ZM232.589 545.72C228.963 545.72 225.709 545.08 222.829 543.8C219.949 542.467 217.656 540.68 215.949 538.44C214.296 536.2 213.389 533.72 213.229 531H224.509C224.723 532.707 225.549 534.12 226.989 535.24C228.483 536.36 230.323 536.92 232.509 536.92C234.643 536.92 236.296 536.493 237.469 535.64C238.696 534.787 239.309 533.693 239.309 532.36C239.309 530.92 238.563 529.853 237.069 529.16C235.629 528.413 233.309 527.613 230.109 526.76C226.803 525.96 224.083 525.133 221.949 524.28C219.869 523.427 218.056 522.12 216.509 520.36C215.016 518.6 214.269 516.227 214.269 513.24C214.269 510.787 214.963 508.547 216.349 506.52C217.789 504.493 219.816 502.893 222.429 501.72C225.096 500.547 228.216 499.96 231.789 499.96C237.069 499.96 241.283 501.293 244.429 503.96C247.576 506.573 249.309 510.12 249.629 514.6H238.909C238.749 512.84 238.003 511.453 236.669 510.44C235.389 509.373 233.656 508.84 231.469 508.84C229.443 508.84 227.869 509.213 226.749 509.96C225.683 510.707 225.149 511.747 225.149 513.08C225.149 514.573 225.896 515.72 227.389 516.52C228.883 517.267 231.203 518.04 234.349 518.84C237.549 519.64 240.189 520.467 242.269 521.32C244.349 522.173 246.136 523.507 247.629 525.32C249.176 527.08 249.976 529.427 250.029 532.36C250.029 534.92 249.309 537.213 247.869 539.24C246.483 541.267 244.456 542.867 241.789 544.04C239.176 545.16 236.109 545.72 232.589 545.72ZM272.263 509.88V531.32C272.263 532.813 272.61 533.907 273.303 534.6C274.05 535.24 275.276 535.56 276.983 535.56H282.183V545H275.143C265.703 545 260.983 540.413 260.983 531.24V509.88H255.703V500.68H260.983V489.72H272.263V500.68H282.183V509.88H272.263ZM301.439 507.56C302.879 505.213 304.745 503.373 307.039 502.04C309.385 500.707 312.052 500.04 315.039 500.04V511.8H312.079C308.559 511.8 305.892 512.627 304.079 514.28C302.319 515.933 301.439 518.813 301.439 522.92V545H290.239V500.68H301.439V507.56ZM319.702 522.68C319.702 518.2 320.582 514.227 322.342 510.76C324.156 507.293 326.583 504.627 329.623 502.76C332.716 500.893 336.156 499.96 339.943 499.96C343.249 499.96 346.129 500.627 348.583 501.96C351.089 503.293 353.089 504.973 354.583 507V500.68H365.863V545H354.583V538.52C353.143 540.6 351.143 542.333 348.583 543.72C346.076 545.053 343.169 545.72 339.863 545.72C336.129 545.72 332.716 544.76 329.623 542.84C326.583 540.92 324.156 538.227 322.342 534.76C320.582 531.24 319.702 527.213 319.702 522.68ZM354.583 522.84C354.583 520.12 354.049 517.8 352.983 515.88C351.916 513.907 350.476 512.413 348.663 511.4C346.849 510.333 344.903 509.8 342.823 509.8C340.743 509.8 338.823 510.307 337.062 511.32C335.303 512.333 333.863 513.827 332.743 515.8C331.676 517.72 331.143 520.013 331.143 522.68C331.143 525.347 331.676 527.693 332.743 529.72C333.863 531.693 335.303 533.213 337.062 534.28C338.876 535.347 340.796 535.88 342.823 535.88C344.903 535.88 346.849 535.373 348.663 534.36C350.476 533.293 351.916 531.8 352.983 529.88C354.049 527.907 354.583 525.56 354.583 522.84ZM388.001 485.8V545H376.801V485.8H388.001ZM404.747 495.4C402.774 495.4 401.12 494.787 399.787 493.56C398.507 492.28 397.867 490.707 397.867 488.84C397.867 486.973 398.507 485.427 399.787 484.2C401.12 482.92 402.774 482.28 404.747 482.28C406.72 482.28 408.347 482.92 409.627 484.2C410.96 485.427 411.627 486.973 411.627 488.84C411.627 490.707 410.96 492.28 409.627 493.56C408.347 494.787 406.72 495.4 404.747 495.4ZM410.267 500.68V545H399.067V500.68H410.267ZM418.452 522.68C418.452 518.2 419.332 514.227 421.092 510.76C422.906 507.293 425.333 504.627 428.373 502.76C431.466 500.893 434.906 499.96 438.693 499.96C441.999 499.96 444.879 500.627 447.333 501.96C449.839 503.293 451.839 504.973 453.333 507V500.68H464.613V545H453.333V538.52C451.893 540.6 449.893 542.333 447.333 543.72C444.826 545.053 441.919 545.72 438.613 545.72C434.879 545.72 431.466 544.76 428.373 542.84C425.333 540.92 422.906 538.227 421.092 534.76C419.332 531.24 418.452 527.213 418.452 522.68ZM453.333 522.84C453.333 520.12 452.799 517.8 451.733 515.88C450.666 513.907 449.226 512.413 447.413 511.4C445.599 510.333 443.653 509.8 441.573 509.8C439.493 509.8 437.573 510.307 435.812 511.32C434.053 512.333 432.613 513.827 431.493 515.8C430.426 517.72 429.893 520.013 429.893 522.68C429.893 525.347 430.426 527.693 431.493 529.72C432.613 531.693 434.053 533.213 435.812 534.28C437.626 535.347 439.546 535.88 441.573 535.88C443.653 535.88 445.599 535.373 447.413 534.36C449.226 533.293 450.666 531.8 451.733 529.88C452.799 527.907 453.333 525.56 453.333 522.84ZM500.111 500.04C505.391 500.04 509.658 501.72 512.911 505.08C516.165 508.387 517.791 513.027 517.791 519V545H506.591V520.52C506.591 517 505.711 514.307 503.951 512.44C502.191 510.52 499.791 509.56 496.751 509.56C493.658 509.56 491.205 510.52 489.391 512.44C487.631 514.307 486.751 517 486.751 520.52V545H475.551V500.68H486.751V506.2C488.245 504.28 490.138 502.787 492.431 501.72C494.778 500.6 497.338 500.04 500.111 500.04Z" fill="white"/>
<path d="M536.72 1043.16C538.16 1041.03 540.133 1039.29 542.64 1037.96C545.2 1036.63 548.107 1035.96 551.36 1035.96C555.147 1035.96 558.56 1036.89 561.6 1038.76C564.693 1040.63 567.12 1043.29 568.88 1046.76C570.693 1050.17 571.6 1054.15 571.6 1058.68C571.6 1063.21 570.693 1067.24 568.88 1070.76C567.12 1074.23 564.693 1076.92 561.6 1078.84C558.56 1080.76 555.147 1081.72 551.36 1081.72C548.053 1081.72 545.147 1081.08 542.64 1079.8C540.187 1078.47 538.213 1076.76 536.72 1074.68V1081H525.52V1021.8H536.72V1043.16ZM560.16 1058.68C560.16 1056.01 559.6 1053.72 558.48 1051.8C557.413 1049.83 555.973 1048.33 554.16 1047.32C552.4 1046.31 550.48 1045.8 548.4 1045.8C546.373 1045.8 544.453 1046.33 542.64 1047.4C540.88 1048.41 539.44 1049.91 538.32 1051.88C537.253 1053.85 536.72 1056.17 536.72 1058.84C536.72 1061.51 537.253 1063.83 538.32 1065.8C539.44 1067.77 540.88 1069.29 542.64 1070.36C544.453 1071.37 546.373 1071.88 548.4 1071.88C550.48 1071.88 552.4 1071.35 554.16 1070.28C555.973 1069.21 557.413 1067.69 558.48 1065.72C559.6 1063.75 560.16 1061.4 560.16 1058.68ZM590.939 1021.8V1081H579.739V1021.8H590.939ZM621.684 1081.72C617.418 1081.72 613.578 1080.79 610.164 1078.92C606.751 1077 604.058 1074.31 602.084 1070.84C600.164 1067.37 599.204 1063.37 599.204 1058.84C599.204 1054.31 600.191 1050.31 602.164 1046.84C604.191 1043.37 606.938 1040.71 610.404 1038.84C613.871 1036.92 617.738 1035.96 622.004 1035.96C626.271 1035.96 630.138 1036.92 633.604 1038.84C637.071 1040.71 639.791 1043.37 641.764 1046.84C643.791 1050.31 644.804 1054.31 644.804 1058.84C644.804 1063.37 643.764 1067.37 641.684 1070.84C639.658 1074.31 636.884 1077 633.364 1078.92C629.898 1080.79 626.004 1081.72 621.684 1081.72ZM621.684 1071.96C623.711 1071.96 625.604 1071.48 627.364 1070.52C629.178 1069.51 630.618 1068.01 631.684 1066.04C632.751 1064.07 633.284 1061.67 633.284 1058.84C633.284 1054.63 632.164 1051.4 629.924 1049.16C627.738 1046.87 625.044 1045.72 621.844 1045.72C618.644 1045.72 615.951 1046.87 613.764 1049.16C611.631 1051.4 610.564 1054.63 610.564 1058.84C610.564 1063.05 611.604 1066.31 613.684 1068.6C615.818 1070.84 618.484 1071.96 621.684 1071.96ZM650.14 1058.84C650.14 1054.25 651.073 1050.25 652.94 1046.84C654.807 1043.37 657.393 1040.71 660.7 1038.84C664.007 1036.92 667.793 1035.96 672.06 1035.96C677.553 1035.96 682.087 1037.35 685.66 1040.12C689.287 1042.84 691.713 1046.68 692.94 1051.64H680.86C680.22 1049.72 679.127 1048.23 677.58 1047.16C676.087 1046.04 674.22 1045.48 671.98 1045.48C668.78 1045.48 666.247 1046.65 664.38 1049C662.513 1051.29 661.58 1054.57 661.58 1058.84C661.58 1063.05 662.513 1066.33 664.38 1068.68C666.247 1070.97 668.78 1072.12 671.98 1072.12C676.513 1072.12 679.473 1070.09 680.86 1066.04H692.94C691.713 1070.84 689.287 1074.65 685.66 1077.48C682.033 1080.31 677.5 1081.72 672.06 1081.72C667.793 1081.72 664.007 1080.79 660.7 1078.92C657.393 1077 654.807 1074.33 652.94 1070.92C651.073 1067.45 650.14 1063.43 650.14 1058.84ZM727.385 1081L712.345 1062.12V1081H701.145V1021.8H712.345V1055.48L727.225 1036.68H741.785L722.265 1058.92L741.945 1081H727.385ZM744.984 1058.84C744.984 1054.25 745.917 1050.25 747.784 1046.84C749.65 1043.37 752.237 1040.71 755.544 1038.84C758.85 1036.92 762.637 1035.96 766.904 1035.96C772.397 1035.96 776.93 1037.35 780.504 1040.12C784.13 1042.84 786.557 1046.68 787.784 1051.64H775.704C775.064 1049.72 773.97 1048.23 772.424 1047.16C770.93 1046.04 769.064 1045.48 766.824 1045.48C763.624 1045.48 761.09 1046.65 759.224 1049C757.357 1051.29 756.424 1054.57 756.424 1058.84C756.424 1063.05 757.357 1066.33 759.224 1068.68C761.09 1070.97 763.624 1072.12 766.824 1072.12C771.357 1072.12 774.317 1070.09 775.704 1066.04H787.784C786.557 1070.84 784.13 1074.65 780.504 1077.48C776.877 1080.31 772.344 1081.72 766.904 1081.72C762.637 1081.72 758.85 1080.79 755.544 1078.92C752.237 1077 749.65 1074.33 747.784 1070.92C745.917 1067.45 744.984 1063.43 744.984 1058.84ZM820.949 1036.04C824.309 1036.04 827.295 1036.79 829.909 1038.28C832.522 1039.72 834.549 1041.88 835.989 1044.76C837.482 1047.59 838.229 1051 838.229 1055V1081H827.029V1056.52C827.029 1053 826.149 1050.31 824.389 1048.44C822.629 1046.52 820.229 1045.56 817.189 1045.56C814.095 1045.56 811.642 1046.52 809.829 1048.44C808.069 1050.31 807.189 1053 807.189 1056.52V1081H795.989V1021.8H807.189V1042.2C808.629 1040.28 810.549 1038.79 812.949 1037.72C815.349 1036.6 818.015 1036.04 820.949 1036.04ZM845.999 1058.68C845.999 1054.2 846.879 1050.23 848.639 1046.76C850.453 1043.29 852.879 1040.63 855.919 1038.76C859.013 1036.89 862.453 1035.96 866.239 1035.96C869.546 1035.96 872.426 1036.63 874.879 1037.96C877.386 1039.29 879.386 1040.97 880.879 1043V1036.68H892.159V1081H880.879V1074.52C879.439 1076.6 877.439 1078.33 874.879 1079.72C872.373 1081.05 869.466 1081.72 866.159 1081.72C862.426 1081.72 859.013 1080.76 855.919 1078.84C852.879 1076.92 850.453 1074.23 848.639 1070.76C846.879 1067.24 845.999 1063.21 845.999 1058.68ZM880.879 1058.84C880.879 1056.12 880.346 1053.8 879.279 1051.88C878.213 1049.91 876.773 1048.41 874.959 1047.4C873.146 1046.33 871.199 1045.8 869.119 1045.8C867.039 1045.8 865.119 1046.31 863.359 1047.32C861.599 1048.33 860.159 1049.83 859.039 1051.8C857.973 1053.72 857.439 1056.01 857.439 1058.68C857.439 1061.35 857.973 1063.69 859.039 1065.72C860.159 1067.69 861.599 1069.21 863.359 1070.28C865.173 1071.35 867.093 1071.88 869.119 1071.88C871.199 1071.88 873.146 1071.37 874.959 1070.36C876.773 1069.29 878.213 1067.8 879.279 1065.88C880.346 1063.91 880.879 1061.56 880.879 1058.84ZM908.778 1031.4C906.805 1031.4 905.151 1030.79 903.818 1029.56C902.538 1028.28 901.898 1026.71 901.898 1024.84C901.898 1022.97 902.538 1021.43 903.818 1020.2C905.151 1018.92 906.805 1018.28 908.778 1018.28C910.751 1018.28 912.378 1018.92 913.658 1020.2C914.991 1021.43 915.658 1022.97 915.658 1024.84C915.658 1026.71 914.991 1028.28 913.658 1029.56C912.378 1030.79 910.751 1031.4 908.778 1031.4ZM914.298 1036.68V1081H903.098V1036.68H914.298ZM949.924 1036.04C955.204 1036.04 959.47 1037.72 962.724 1041.08C965.977 1044.39 967.604 1049.03 967.604 1055V1081H956.404V1056.52C956.404 1053 955.524 1050.31 953.764 1048.44C952.004 1046.52 949.604 1045.56 946.564 1045.56C943.47 1045.56 941.017 1046.52 939.204 1048.44C937.444 1050.31 936.564 1053 936.564 1056.52V1081H925.364V1036.68H936.564V1042.2C938.057 1040.28 939.95 1038.79 942.244 1037.72C944.59 1036.6 947.15 1036.04 949.924 1036.04Z" fill="white"/>
<path d="M1082.64 1378.84C1082.64 1374.25 1083.57 1370.25 1085.44 1366.84C1087.31 1363.37 1089.89 1360.71 1093.2 1358.84C1096.51 1356.92 1100.29 1355.96 1104.56 1355.96C1110.05 1355.96 1114.59 1357.35 1118.16 1360.12C1121.79 1362.84 1124.21 1366.68 1125.44 1371.64H1113.36C1112.72 1369.72 1111.63 1368.23 1110.08 1367.16C1108.59 1366.04 1106.72 1365.48 1104.48 1365.48C1101.28 1365.48 1098.75 1366.65 1096.88 1369C1095.01 1371.29 1094.08 1374.57 1094.08 1378.84C1094.08 1383.05 1095.01 1386.33 1096.88 1388.68C1098.75 1390.97 1101.28 1392.12 1104.48 1392.12C1109.01 1392.12 1111.97 1390.09 1113.36 1386.04H1125.44C1124.21 1390.84 1121.79 1394.65 1118.16 1397.48C1114.53 1400.31 1110 1401.72 1104.56 1401.72C1100.29 1401.72 1096.51 1400.79 1093.2 1398.92C1089.89 1397 1087.31 1394.33 1085.44 1390.92C1083.57 1387.45 1082.64 1383.43 1082.64 1378.84ZM1144.85 1341.8V1401H1133.65V1341.8H1144.85ZM1197.75 1356.68V1401H1186.47V1395.4C1185.03 1397.32 1183.14 1398.84 1180.79 1399.96C1178.5 1401.03 1175.99 1401.56 1173.27 1401.56C1169.8 1401.56 1166.74 1400.84 1164.07 1399.4C1161.4 1397.91 1159.3 1395.75 1157.75 1392.92C1156.26 1390.04 1155.51 1386.63 1155.51 1382.68V1356.68H1166.71V1381.08C1166.71 1384.6 1167.59 1387.32 1169.35 1389.24C1171.11 1391.11 1173.51 1392.04 1176.55 1392.04C1179.64 1392.04 1182.07 1391.11 1183.83 1389.24C1185.59 1387.32 1186.47 1384.6 1186.47 1381.08V1356.68H1197.75ZM1220 1363.16C1221.44 1361.03 1223.41 1359.29 1225.92 1357.96C1228.48 1356.63 1231.39 1355.96 1234.64 1355.96C1238.43 1355.96 1241.84 1356.89 1244.88 1358.76C1247.97 1360.63 1250.4 1363.29 1252.16 1366.76C1253.97 1370.17 1254.88 1374.15 1254.88 1378.68C1254.88 1383.21 1253.97 1387.24 1252.16 1390.76C1250.4 1394.23 1247.97 1396.92 1244.88 1398.84C1241.84 1400.76 1238.43 1401.72 1234.64 1401.72C1231.33 1401.72 1228.43 1401.08 1225.92 1399.8C1223.47 1398.47 1221.49 1396.76 1220 1394.68V1401H1208.8V1341.8H1220V1363.16ZM1243.44 1378.68C1243.44 1376.01 1242.88 1373.72 1241.76 1371.8C1240.69 1369.83 1239.25 1368.33 1237.44 1367.32C1235.68 1366.31 1233.76 1365.8 1231.68 1365.8C1229.65 1365.8 1227.73 1366.33 1225.92 1367.4C1224.16 1368.41 1222.72 1369.91 1221.6 1371.88C1220.53 1373.85 1220 1376.17 1220 1378.84C1220 1381.51 1220.53 1383.83 1221.6 1385.8C1222.72 1387.77 1224.16 1389.29 1225.92 1390.36C1227.73 1391.37 1229.65 1391.88 1231.68 1391.88C1233.76 1391.88 1235.68 1391.35 1237.44 1390.28C1239.25 1389.21 1240.69 1387.69 1241.76 1385.72C1242.88 1383.75 1243.44 1381.4 1243.44 1378.68Z" fill="white"/>
</svg>
