<svg width="186" height="71" viewBox="0 0 186 71" fill="none" xmlns="http://www.w3.org/2000/svg">
<rect width="186" height="71" rx="35.5" fill="white"/>
<path d="M30.72 25.08V34.4H40.88V37.4H30.72V47H42.08V50H27.08V22.08H42.08V25.08H30.72ZM69.5078 50H65.8678L51.2278 27.8V50H47.5878V22.08H51.2278L65.8678 44.24V22.08H69.5078V50ZM96.8328 30.2C96.0595 28.5733 94.9395 27.32 93.4728 26.44C92.0061 25.5333 90.2995 25.08 88.3528 25.08C86.4061 25.08 84.6461 25.5333 83.0728 26.44C81.5261 27.32 80.2995 28.6 79.3928 30.28C78.5128 31.9333 78.0728 33.8533 78.0728 36.04C78.0728 38.2267 78.5128 40.1467 79.3928 41.8C80.2995 43.4533 81.5261 44.7333 83.0728 45.64C84.6461 46.52 86.4061 46.96 88.3528 46.96C91.0728 46.96 93.3128 46.1467 95.0728 44.52C96.8328 42.8933 97.8595 40.6933 98.1528 37.92H87.0328V34.96H102.033V37.76C101.819 40.0533 101.099 42.16 99.8728 44.08C98.6461 45.9733 97.0328 47.48 95.0328 48.6C93.0328 49.6933 90.8061 50.24 88.3528 50.24C85.7661 50.24 83.4061 49.64 81.2728 48.44C79.1395 47.2133 77.4461 45.52 76.1928 43.36C74.9661 41.2 74.3528 38.76 74.3528 36.04C74.3528 33.32 74.9661 30.88 76.1928 28.72C77.4461 26.5333 79.1395 24.84 81.2728 23.64C83.4061 22.4133 85.7661 21.8 88.3528 21.8C91.3128 21.8 93.9261 22.5333 96.1928 24C98.4861 25.4667 100.153 27.5333 101.193 30.2H96.8328Z" fill="#FB4A1E"/>
<circle cx="150.5" cy="35.5" r="35.5" fill="#FB4A1E"/>
</svg>
