<svg width="672" height="591" viewBox="0 0 672 591" fill="none" xmlns="http://www.w3.org/2000/svg">
<path d="M587.542 590.158L1.43359 489.937L378.662 50.8178L587.542 590.158Z" fill="#FB4A1E" stroke="#FB4A1E"/>
<path d="M176.578 353.508L152 402.632H201.156L176.578 353.508ZM176.578 386.291L176.55 386.242H176.598L176.574 386.291H176.578Z" fill="white"/>
<path d="M207.985 353.48V402.629L227.581 402.661V373.181H237.538V402.661L257.134 402.629V353.48H207.981H207.985Z" fill="white"/>
<path d="M152 409.703V458.851L171.596 458.883V429.403H181.556V458.883L201.152 458.851V409.703H152Z" fill="white"/>
<path d="M227.645 426.092H257.138V409.719H207.981V458.867H257.138V435.924H244.031V442.477H227.645V426.088V426.092Z" fill="white"/>
<path d="M287.418 370.604L293.623 353.77H295.763L301.944 370.604H299.803L298.264 366.275H291.097L289.534 370.604H287.418ZM291.699 364.64H297.663L294.681 356.319L291.699 364.64Z" fill="white"/>
<path d="M310.689 370.892C309.534 370.892 308.488 370.664 307.55 370.207C306.612 369.75 305.863 369.041 305.302 368.079C304.741 367.117 304.46 365.89 304.46 364.399V353.77H306.48V364.423C306.48 366.059 306.873 367.245 307.658 367.982C308.444 368.72 309.47 369.089 310.737 369.089C312.003 369.089 313.021 368.72 313.791 367.982C314.561 367.245 314.945 366.059 314.945 364.423V353.77H316.965V364.399C316.965 365.89 316.685 367.117 316.124 368.079C315.563 369.041 314.809 369.75 313.863 370.207C312.917 370.664 311.859 370.892 310.689 370.892Z" fill="white"/>
<path d="M326.22 370.892C324.986 370.892 323.911 370.667 322.998 370.219C322.084 369.77 321.378 369.144 320.881 368.343C320.384 367.541 320.136 366.611 320.136 365.553H322.252C322.252 366.21 322.404 366.816 322.709 367.369C323.014 367.922 323.459 368.363 324.044 368.691C324.629 369.02 325.354 369.184 326.22 369.184C327.358 369.184 328.24 368.912 328.866 368.367C329.491 367.822 329.803 367.14 329.803 366.323C329.803 365.649 329.659 365.108 329.371 364.699C329.082 364.29 328.693 363.958 328.204 363.701C327.715 363.445 327.154 363.22 326.521 363.028C325.887 362.836 325.226 362.619 324.537 362.379C323.238 361.93 322.276 361.373 321.651 360.707C321.026 360.042 320.713 359.172 320.713 358.098C320.697 357.2 320.905 356.402 321.338 355.705C321.771 355.008 322.384 354.462 323.178 354.07C323.972 353.677 324.913 353.48 326.004 353.48C327.094 353.48 328.012 353.681 328.805 354.082C329.599 354.483 330.216 355.036 330.657 355.741C331.098 356.447 331.327 357.248 331.343 358.146H329.226C329.226 357.681 329.106 357.22 328.866 356.763C328.625 356.306 328.26 355.933 327.771 355.645C327.282 355.356 326.669 355.212 325.932 355.212C325.018 355.196 324.268 355.428 323.683 355.909C323.098 356.39 322.805 357.056 322.805 357.905C322.805 358.627 323.01 359.18 323.418 359.565C323.827 359.95 324.4 360.266 325.138 360.515C325.875 360.763 326.725 361.048 327.687 361.369C328.489 361.657 329.21 361.994 329.852 362.379C330.493 362.763 330.994 363.26 331.355 363.87C331.715 364.479 331.896 365.256 331.896 366.202C331.896 367.004 331.687 367.762 331.27 368.475C330.854 369.188 330.224 369.77 329.383 370.219C328.541 370.667 327.487 370.892 326.22 370.892Z" fill="white"/>
<path d="M339.176 370.604V355.429H334.149V353.77H346.222V355.429H341.196V370.604H339.176Z" fill="white"/>
<path d="M349.179 370.604V353.77H354.614C355.928 353.77 357.003 353.986 357.836 354.419C358.67 354.852 359.287 355.445 359.688 356.198C360.089 356.952 360.289 357.786 360.289 358.7C360.289 359.758 360.005 360.712 359.436 361.561C358.866 362.411 357.981 363.012 356.778 363.365L360.458 370.604H358.077L354.662 363.654H351.199V370.604H349.179ZM351.199 362.066H354.47C355.768 362.066 356.714 361.754 357.307 361.129C357.9 360.503 358.197 359.702 358.197 358.724C358.197 357.746 357.905 356.94 357.319 356.355C356.734 355.77 355.776 355.477 354.445 355.477H351.199V362.066Z" fill="white"/>
<path d="M362.864 370.604L369.069 353.77H371.209L377.39 370.604H375.249L373.71 366.275H366.544L364.981 370.604H362.864ZM367.145 364.64H373.109L370.127 356.319L367.145 364.64Z" fill="white"/>
<path d="M380.37 370.604V353.77H382.39V368.993H390.23V370.604H380.37Z" fill="white"/>
<path d="M393.479 370.604V353.77H395.499V370.604H393.479Z" fill="white"/>
<path d="M398.48 370.604L404.685 353.77H406.825L413.006 370.604H410.866L409.327 366.275H402.16L400.597 370.604H398.48ZM402.761 364.64H408.725L405.743 356.319L402.761 364.64Z" fill="white"/>
<path d="M415.987 370.604V353.77H418.007L426.978 367.261V353.77H428.998V370.604H426.978L418.007 357.112V370.604H415.987Z" fill="white"/>
<path d="M288.478 400.156V383.321H290.498L299.468 396.813V383.321H301.488V400.156H299.468L290.498 386.664V400.156H288.478Z" fill="white"/>
<path d="M304.07 400.156L310.275 383.321H312.415L318.596 400.156H316.456L314.916 395.827H307.75L306.187 400.156H304.07ZM308.351 394.191H314.315L311.333 385.87L308.351 394.191Z" fill="white"/>
<path d="M323.958 400.156V384.981H318.932V383.321H331.004V384.981H325.978V400.156H323.958Z" fill="white"/>
<path d="M334.423 400.156V383.321H336.443V400.156H334.423Z" fill="white"/>
<path d="M348.132 400.444C346.48 400.444 345.034 400.079 343.791 399.349C342.548 398.62 341.579 397.598 340.881 396.283C340.184 394.969 339.835 393.453 339.835 391.738C339.835 390.022 340.184 388.511 340.881 387.205C341.579 385.898 342.548 384.876 343.791 384.138C345.034 383.401 346.48 383.032 348.132 383.032C349.783 383.032 351.254 383.401 352.497 384.138C353.739 384.876 354.705 385.898 355.395 387.205C356.084 388.511 356.429 390.022 356.429 391.738C356.429 393.453 356.084 394.969 355.395 396.283C354.705 397.598 353.739 398.62 352.497 399.349C351.254 400.079 349.799 400.444 348.132 400.444ZM348.132 398.664C349.366 398.664 350.453 398.388 351.39 397.834C352.328 397.281 353.058 396.488 353.579 395.454C354.1 394.419 354.361 393.181 354.361 391.738C354.361 390.295 354.1 389.061 353.579 388.034C353.058 387.008 352.328 386.219 351.39 385.666C350.453 385.112 349.366 384.836 348.132 384.836C346.897 384.836 345.811 385.112 344.873 385.666C343.935 386.219 343.206 387.008 342.685 388.034C342.164 389.061 341.903 390.295 341.903 391.738C341.903 393.181 342.164 394.419 342.685 395.454C343.206 396.488 343.935 397.281 344.873 397.834C345.811 398.388 346.897 398.664 348.132 398.664Z" fill="white"/>
<path d="M359.824 400.156V383.321H361.844L370.815 396.813V383.321H372.835V400.156H370.815L361.844 386.664V400.156H359.824Z" fill="white"/>
<path d="M375.812 400.156L382.016 383.321H384.156L390.337 400.156H388.197L386.658 395.827H379.491L377.928 400.156H375.812ZM380.092 394.191H386.056L383.074 385.87L380.092 394.191Z" fill="white"/>
<path d="M393.318 400.156V383.321H395.338V398.544H403.178V400.156H393.318Z" fill="white"/>
<path d="M288.478 429.423V412.589H290.498L299.468 426.08V412.589H301.488V429.423H299.468L290.498 415.932V429.423H288.478Z" fill="white"/>
<path d="M306.209 429.423V412.589H316.454V414.248H308.229V420.164H315.227V421.8H308.229V429.423H306.209Z" fill="white"/>
<path d="M323.958 429.423V414.248H318.932V412.589H331.004V414.248H325.978V429.423H323.958Z" fill="white"/>
<path d="M295.315 458.975C293.744 458.975 292.365 458.61 291.178 457.881C289.992 457.151 289.07 456.133 288.413 454.826C287.755 453.52 287.427 452.009 287.427 450.293C287.427 448.578 287.759 447.063 288.425 445.748C289.09 444.433 290.036 443.407 291.263 442.67C292.489 441.932 293.936 441.563 295.603 441.563C297.495 441.563 299.07 442.02 300.329 442.934C301.588 443.848 302.401 445.107 302.77 446.71H300.437C300.213 445.7 299.68 444.898 298.838 444.305C297.996 443.712 296.918 443.415 295.603 443.415C294.369 443.415 293.295 443.692 292.381 444.245C291.467 444.798 290.758 445.588 290.253 446.614C289.747 447.64 289.495 448.866 289.495 450.293C289.495 451.72 289.743 452.947 290.24 453.973C290.738 454.999 291.427 455.788 292.309 456.342C293.19 456.895 294.217 457.171 295.387 457.171C297.183 457.171 298.537 456.646 299.451 455.596C300.365 454.546 300.886 453.107 301.014 451.279H296.157V449.692H303.083V458.686H301.231L301.063 455.921C300.453 456.899 299.708 457.652 298.826 458.181C297.944 458.71 296.774 458.975 295.315 458.975Z" fill="white"/>
<path d="M305.671 458.687L311.876 441.853H314.016L320.196 458.687H318.056L316.517 454.358H309.35L307.787 458.687H305.671ZM309.952 452.723H315.916L312.934 444.402L309.952 452.723Z" fill="white"/>
<path d="M324.009 458.687V441.853H326.029V457.076H333.869V458.687H324.009Z" fill="white"/>
<path d="M337.114 458.687V441.853H339.134V457.076H346.974V458.687H337.114Z" fill="white"/>
<path d="M350.223 458.687V441.853H360.636V443.512H352.243V449.38H359.914V451.015H352.243V457.027H360.636V458.687H350.223Z" fill="white"/>
<path d="M364.267 458.687V441.853H369.702C371.016 441.853 372.091 442.069 372.924 442.502C373.758 442.935 374.375 443.528 374.776 444.281C375.177 445.035 375.377 445.869 375.377 446.783C375.377 447.841 375.093 448.795 374.524 449.644C373.954 450.494 373.069 451.095 371.866 451.448L375.546 458.687H373.165L369.75 451.737H366.287V458.687H364.267ZM366.287 450.149H369.557C370.856 450.149 371.802 449.837 372.395 449.212C372.988 448.586 373.285 447.785 373.285 446.807C373.285 445.829 372.992 445.023 372.407 444.438C371.822 443.853 370.864 443.56 369.533 443.56H366.287V450.149Z" fill="white"/>
<path d="M382.496 458.687V452.29L377.013 441.853H379.297L383.506 450.366L387.714 441.853H389.975L384.516 452.29V458.687H382.496Z" fill="white"/>
</svg>
