<svg width="1613" height="1663" viewBox="0 0 1613 1663" fill="none" xmlns="http://www.w3.org/2000/svg">
<path d="M0.811488 580.5L292.5 1.11192L584.189 580.5L0.811488 580.5Z" stroke="#F2F1EE"/>
<path d="M83.64 522.68C83.64 518.2 84.52 514.227 86.28 510.76C88.0933 507.293 90.52 504.627 93.56 502.76C96.6533 500.893 100.093 499.96 103.88 499.96C107.187 499.96 110.067 500.627 112.52 501.96C115.027 503.293 117.027 504.973 118.52 507V500.68H129.8V545H118.52V538.52C117.08 540.6 115.08 542.333 112.52 543.72C110.013 545.053 107.107 545.72 103.8 545.72C100.067 545.72 96.6533 544.76 93.56 542.84C90.52 540.92 88.0933 538.227 86.28 534.76C84.52 531.24 83.64 527.213 83.64 522.68ZM118.52 522.84C118.52 520.12 117.987 517.8 116.92 515.88C115.853 513.907 114.413 512.413 112.6 511.4C110.787 510.333 108.84 509.8 106.76 509.8C104.68 509.8 102.76 510.307 101 511.32C99.24 512.333 97.8 513.827 96.68 515.8C95.6133 517.72 95.08 520.013 95.08 522.68C95.08 525.347 95.6133 527.693 96.68 529.72C97.8 531.693 99.24 533.213 101 534.28C102.813 535.347 104.733 535.88 106.76 535.88C108.84 535.88 110.787 535.373 112.6 534.36C114.413 533.293 115.853 531.8 116.92 529.88C117.987 527.907 118.52 525.56 118.52 522.84ZM182.579 500.68V545H171.299V539.4C169.859 541.32 167.965 542.84 165.619 543.96C163.325 545.027 160.819 545.56 158.099 545.56C154.632 545.56 151.565 544.84 148.899 543.4C146.232 541.907 144.125 539.747 142.579 536.92C141.085 534.04 140.339 530.627 140.339 526.68V500.68H151.539V525.08C151.539 528.6 152.419 531.32 154.179 533.24C155.939 535.107 158.339 536.04 161.379 536.04C164.472 536.04 166.899 535.107 168.659 533.24C170.419 531.32 171.299 528.6 171.299 525.08V500.68H182.579ZM210.589 545.72C206.963 545.72 203.709 545.08 200.829 543.8C197.949 542.467 195.656 540.68 193.949 538.44C192.296 536.2 191.389 533.72 191.229 531H202.509C202.723 532.707 203.549 534.12 204.989 535.24C206.483 536.36 208.323 536.92 210.509 536.92C212.643 536.92 214.296 536.493 215.469 535.64C216.696 534.787 217.309 533.693 217.309 532.36C217.309 530.92 216.563 529.853 215.069 529.16C213.629 528.413 211.309 527.613 208.109 526.76C204.803 525.96 202.083 525.133 199.949 524.28C197.869 523.427 196.056 522.12 194.509 520.36C193.016 518.6 192.269 516.227 192.269 513.24C192.269 510.787 192.963 508.547 194.349 506.52C195.789 504.493 197.816 502.893 200.429 501.72C203.096 500.547 206.216 499.96 209.789 499.96C215.069 499.96 219.283 501.293 222.429 503.96C225.576 506.573 227.309 510.12 227.629 514.6H216.909C216.749 512.84 216.003 511.453 214.669 510.44C213.389 509.373 211.656 508.84 209.469 508.84C207.443 508.84 205.869 509.213 204.749 509.96C203.683 510.707 203.149 511.747 203.149 513.08C203.149 514.573 203.896 515.72 205.389 516.52C206.883 517.267 209.203 518.04 212.349 518.84C215.549 519.64 218.189 520.467 220.269 521.32C222.349 522.173 224.136 523.507 225.629 525.32C227.176 527.08 227.976 529.427 228.029 532.36C228.029 534.92 227.309 537.213 225.869 539.24C224.483 541.267 222.456 542.867 219.789 544.04C217.176 545.16 214.109 545.72 210.589 545.72ZM250.263 509.88V531.32C250.263 532.813 250.61 533.907 251.303 534.6C252.05 535.24 253.276 535.56 254.983 535.56H260.183V545H253.143C243.703 545 238.983 540.413 238.983 531.24V509.88H233.703V500.68H238.983V489.72H250.263V500.68H260.183V509.88H250.263ZM279.439 507.56C280.879 505.213 282.745 503.373 285.039 502.04C287.385 500.707 290.052 500.04 293.039 500.04V511.8H290.079C286.559 511.8 283.892 512.627 282.079 514.28C280.319 515.933 279.439 518.813 279.439 522.92V545H268.239V500.68H279.439V507.56ZM297.702 522.68C297.702 518.2 298.582 514.227 300.342 510.76C302.156 507.293 304.583 504.627 307.623 502.76C310.716 500.893 314.156 499.96 317.943 499.96C321.249 499.96 324.129 500.627 326.583 501.96C329.089 503.293 331.089 504.973 332.583 507V500.68H343.863V545H332.583V538.52C331.143 540.6 329.143 542.333 326.583 543.72C324.076 545.053 321.169 545.72 317.863 545.72C314.129 545.72 310.716 544.76 307.623 542.84C304.583 540.92 302.156 538.227 300.342 534.76C298.582 531.24 297.702 527.213 297.702 522.68ZM332.583 522.84C332.583 520.12 332.049 517.8 330.983 515.88C329.916 513.907 328.476 512.413 326.663 511.4C324.849 510.333 322.903 509.8 320.823 509.8C318.743 509.8 316.823 510.307 315.062 511.32C313.303 512.333 311.863 513.827 310.743 515.8C309.676 517.72 309.143 520.013 309.143 522.68C309.143 525.347 309.676 527.693 310.743 529.72C311.863 531.693 313.303 533.213 315.062 534.28C316.876 535.347 318.796 535.88 320.823 535.88C322.903 535.88 324.849 535.373 326.663 534.36C328.476 533.293 329.916 531.8 330.983 529.88C332.049 527.907 332.583 525.56 332.583 522.84ZM366.001 485.8V545H354.801V485.8H366.001ZM382.747 495.4C380.774 495.4 379.12 494.787 377.787 493.56C376.507 492.28 375.867 490.707 375.867 488.84C375.867 486.973 376.507 485.427 377.787 484.2C379.12 482.92 380.774 482.28 382.747 482.28C384.72 482.28 386.347 482.92 387.627 484.2C388.96 485.427 389.627 486.973 389.627 488.84C389.627 490.707 388.96 492.28 387.627 493.56C386.347 494.787 384.72 495.4 382.747 495.4ZM388.267 500.68V545H377.067V500.68H388.267ZM396.452 522.68C396.452 518.2 397.332 514.227 399.092 510.76C400.906 507.293 403.333 504.627 406.373 502.76C409.466 500.893 412.906 499.96 416.693 499.96C419.999 499.96 422.879 500.627 425.333 501.96C427.839 503.293 429.839 504.973 431.333 507V500.68H442.613V545H431.333V538.52C429.893 540.6 427.893 542.333 425.333 543.72C422.826 545.053 419.919 545.72 416.613 545.72C412.879 545.72 409.466 544.76 406.373 542.84C403.333 540.92 400.906 538.227 399.092 534.76C397.332 531.24 396.452 527.213 396.452 522.68ZM431.333 522.84C431.333 520.12 430.799 517.8 429.733 515.88C428.666 513.907 427.226 512.413 425.413 511.4C423.599 510.333 421.653 509.8 419.573 509.8C417.493 509.8 415.573 510.307 413.812 511.32C412.053 512.333 410.613 513.827 409.493 515.8C408.426 517.72 407.893 520.013 407.893 522.68C407.893 525.347 408.426 527.693 409.493 529.72C410.613 531.693 412.053 533.213 413.812 534.28C415.626 535.347 417.546 535.88 419.573 535.88C421.653 535.88 423.599 535.373 425.413 534.36C427.226 533.293 428.666 531.8 429.733 529.88C430.799 527.907 431.333 525.56 431.333 522.84ZM478.111 500.04C483.391 500.04 487.658 501.72 490.911 505.08C494.165 508.387 495.791 513.027 495.791 519V545H484.591V520.52C484.591 517 483.711 514.307 481.951 512.44C480.191 510.52 477.791 509.56 474.751 509.56C471.658 509.56 469.205 510.52 467.391 512.44C465.631 514.307 464.751 517 464.751 520.52V545H453.551V500.68H464.751V506.2C466.245 504.28 468.138 502.787 470.431 501.72C472.778 500.6 475.338 500.04 478.111 500.04Z" fill="white"/>
<path d="M293.5 581L475 941L112 941L293.5 581Z" fill="white"/>
<path d="M1042.5 1662.18L1611.9 1372L1042.5 1081.82L1042.5 1662.18Z" stroke="#F2F1EE"/>
<path d="M1041.5 1052.5C1041.5 1212.66 910.324 1342.5 748.5 1342.5C586.676 1342.5 455.5 1212.66 455.5 1052.5C455.5 892.342 586.676 762.5 748.5 762.5C910.324 762.5 1041.5 892.342 1041.5 1052.5Z" stroke="#F2F1EE"/>
<path d="M1042 471C1042 310.837 910.372 181 748 181L748 761C910.372 761 1042 631.163 1042 471Z" fill="white"/>
<path d="M536.72 1043.16C538.16 1041.03 540.133 1039.29 542.64 1037.96C545.2 1036.63 548.107 1035.96 551.36 1035.96C555.147 1035.96 558.56 1036.89 561.6 1038.76C564.693 1040.63 567.12 1043.29 568.88 1046.76C570.693 1050.17 571.6 1054.15 571.6 1058.68C571.6 1063.21 570.693 1067.24 568.88 1070.76C567.12 1074.23 564.693 1076.92 561.6 1078.84C558.56 1080.76 555.147 1081.72 551.36 1081.72C548.053 1081.72 545.147 1081.08 542.64 1079.8C540.187 1078.47 538.213 1076.76 536.72 1074.68V1081H525.52V1021.8H536.72V1043.16ZM560.16 1058.68C560.16 1056.01 559.6 1053.72 558.48 1051.8C557.413 1049.83 555.973 1048.33 554.16 1047.32C552.4 1046.31 550.48 1045.8 548.4 1045.8C546.373 1045.8 544.453 1046.33 542.64 1047.4C540.88 1048.41 539.44 1049.91 538.32 1051.88C537.253 1053.85 536.72 1056.17 536.72 1058.84C536.72 1061.51 537.253 1063.83 538.32 1065.8C539.44 1067.77 540.88 1069.29 542.64 1070.36C544.453 1071.37 546.373 1071.88 548.4 1071.88C550.48 1071.88 552.4 1071.35 554.16 1070.28C555.973 1069.21 557.413 1067.69 558.48 1065.72C559.6 1063.75 560.16 1061.4 560.16 1058.68ZM590.939 1021.8V1081H579.739V1021.8H590.939ZM621.684 1081.72C617.418 1081.72 613.578 1080.79 610.164 1078.92C606.751 1077 604.058 1074.31 602.084 1070.84C600.164 1067.37 599.204 1063.37 599.204 1058.84C599.204 1054.31 600.191 1050.31 602.164 1046.84C604.191 1043.37 606.938 1040.71 610.404 1038.84C613.871 1036.92 617.738 1035.96 622.004 1035.96C626.271 1035.96 630.138 1036.92 633.604 1038.84C637.071 1040.71 639.791 1043.37 641.764 1046.84C643.791 1050.31 644.804 1054.31 644.804 1058.84C644.804 1063.37 643.764 1067.37 641.684 1070.84C639.658 1074.31 636.884 1077 633.364 1078.92C629.898 1080.79 626.004 1081.72 621.684 1081.72ZM621.684 1071.96C623.711 1071.96 625.604 1071.48 627.364 1070.52C629.178 1069.51 630.618 1068.01 631.684 1066.04C632.751 1064.07 633.284 1061.67 633.284 1058.84C633.284 1054.63 632.164 1051.4 629.924 1049.16C627.738 1046.87 625.044 1045.72 621.844 1045.72C618.644 1045.72 615.951 1046.87 613.764 1049.16C611.631 1051.4 610.564 1054.63 610.564 1058.84C610.564 1063.05 611.604 1066.31 613.684 1068.6C615.818 1070.84 618.484 1071.96 621.684 1071.96ZM650.14 1058.84C650.14 1054.25 651.073 1050.25 652.94 1046.84C654.807 1043.37 657.393 1040.71 660.7 1038.84C664.007 1036.92 667.793 1035.96 672.06 1035.96C677.553 1035.96 682.087 1037.35 685.66 1040.12C689.287 1042.84 691.713 1046.68 692.94 1051.64H680.86C680.22 1049.72 679.127 1048.23 677.58 1047.16C676.087 1046.04 674.22 1045.48 671.98 1045.48C668.78 1045.48 666.247 1046.65 664.38 1049C662.513 1051.29 661.58 1054.57 661.58 1058.84C661.58 1063.05 662.513 1066.33 664.38 1068.68C666.247 1070.97 668.78 1072.12 671.98 1072.12C676.513 1072.12 679.473 1070.09 680.86 1066.04H692.94C691.713 1070.84 689.287 1074.65 685.66 1077.48C682.033 1080.31 677.5 1081.72 672.06 1081.72C667.793 1081.72 664.007 1080.79 660.7 1078.92C657.393 1077 654.807 1074.33 652.94 1070.92C651.073 1067.45 650.14 1063.43 650.14 1058.84ZM727.385 1081L712.345 1062.12V1081H701.145V1021.8H712.345V1055.48L727.225 1036.68H741.785L722.265 1058.92L741.945 1081H727.385ZM744.984 1058.84C744.984 1054.25 745.917 1050.25 747.784 1046.84C749.65 1043.37 752.237 1040.71 755.544 1038.84C758.85 1036.92 762.637 1035.96 766.904 1035.96C772.397 1035.96 776.93 1037.35 780.504 1040.12C784.13 1042.84 786.557 1046.68 787.784 1051.64H775.704C775.064 1049.72 773.97 1048.23 772.424 1047.16C770.93 1046.04 769.064 1045.48 766.824 1045.48C763.624 1045.48 761.09 1046.65 759.224 1049C757.357 1051.29 756.424 1054.57 756.424 1058.84C756.424 1063.05 757.357 1066.33 759.224 1068.68C761.09 1070.97 763.624 1072.12 766.824 1072.12C771.357 1072.12 774.317 1070.09 775.704 1066.04H787.784C786.557 1070.84 784.13 1074.65 780.504 1077.48C776.877 1080.31 772.344 1081.72 766.904 1081.72C762.637 1081.72 758.85 1080.79 755.544 1078.92C752.237 1077 749.65 1074.33 747.784 1070.92C745.917 1067.45 744.984 1063.43 744.984 1058.84ZM820.949 1036.04C824.309 1036.04 827.295 1036.79 829.909 1038.28C832.522 1039.72 834.549 1041.88 835.989 1044.76C837.482 1047.59 838.229 1051 838.229 1055V1081H827.029V1056.52C827.029 1053 826.149 1050.31 824.389 1048.44C822.629 1046.52 820.229 1045.56 817.189 1045.56C814.095 1045.56 811.642 1046.52 809.829 1048.44C808.069 1050.31 807.189 1053 807.189 1056.52V1081H795.989V1021.8H807.189V1042.2C808.629 1040.28 810.549 1038.79 812.949 1037.72C815.349 1036.6 818.015 1036.04 820.949 1036.04ZM845.999 1058.68C845.999 1054.2 846.879 1050.23 848.639 1046.76C850.453 1043.29 852.879 1040.63 855.919 1038.76C859.013 1036.89 862.453 1035.96 866.239 1035.96C869.546 1035.96 872.426 1036.63 874.879 1037.96C877.386 1039.29 879.386 1040.97 880.879 1043V1036.68H892.159V1081H880.879V1074.52C879.439 1076.6 877.439 1078.33 874.879 1079.72C872.373 1081.05 869.466 1081.72 866.159 1081.72C862.426 1081.72 859.013 1080.76 855.919 1078.84C852.879 1076.92 850.453 1074.23 848.639 1070.76C846.879 1067.24 845.999 1063.21 845.999 1058.68ZM880.879 1058.84C880.879 1056.12 880.346 1053.8 879.279 1051.88C878.213 1049.91 876.773 1048.41 874.959 1047.4C873.146 1046.33 871.199 1045.8 869.119 1045.8C867.039 1045.8 865.119 1046.31 863.359 1047.32C861.599 1048.33 860.159 1049.83 859.039 1051.8C857.973 1053.72 857.439 1056.01 857.439 1058.68C857.439 1061.35 857.973 1063.69 859.039 1065.72C860.159 1067.69 861.599 1069.21 863.359 1070.28C865.173 1071.35 867.093 1071.88 869.119 1071.88C871.199 1071.88 873.146 1071.37 874.959 1070.36C876.773 1069.29 878.213 1067.8 879.279 1065.88C880.346 1063.91 880.879 1061.56 880.879 1058.84ZM908.778 1031.4C906.805 1031.4 905.151 1030.79 903.818 1029.56C902.538 1028.28 901.898 1026.71 901.898 1024.84C901.898 1022.97 902.538 1021.43 903.818 1020.2C905.151 1018.92 906.805 1018.28 908.778 1018.28C910.751 1018.28 912.378 1018.92 913.658 1020.2C914.991 1021.43 915.658 1022.97 915.658 1024.84C915.658 1026.71 914.991 1028.28 913.658 1029.56C912.378 1030.79 910.751 1031.4 908.778 1031.4ZM914.298 1036.68V1081H903.098V1036.68H914.298ZM949.924 1036.04C955.204 1036.04 959.47 1037.72 962.724 1041.08C965.977 1044.39 967.604 1049.03 967.604 1055V1081H956.404V1056.52C956.404 1053 955.524 1050.31 953.764 1048.44C952.004 1046.52 949.604 1045.56 946.564 1045.56C943.47 1045.56 941.017 1046.52 939.204 1048.44C937.444 1050.31 936.564 1053 936.564 1056.52V1081H925.364V1036.68H936.564V1042.2C938.057 1040.28 939.95 1038.79 942.244 1037.72C944.59 1036.6 947.15 1036.04 949.924 1036.04Z" fill="white"/>
<path d="M1082.64 1377.84C1082.64 1373.25 1083.57 1369.25 1085.44 1365.84C1087.31 1362.37 1089.89 1359.71 1093.2 1357.84C1096.51 1355.92 1100.29 1354.96 1104.56 1354.96C1110.05 1354.96 1114.59 1356.35 1118.16 1359.12C1121.79 1361.84 1124.21 1365.68 1125.44 1370.64H1113.36C1112.72 1368.72 1111.63 1367.23 1110.08 1366.16C1108.59 1365.04 1106.72 1364.48 1104.48 1364.48C1101.28 1364.48 1098.75 1365.65 1096.88 1368C1095.01 1370.29 1094.08 1373.57 1094.08 1377.84C1094.08 1382.05 1095.01 1385.33 1096.88 1387.68C1098.75 1389.97 1101.28 1391.12 1104.48 1391.12C1109.01 1391.12 1111.97 1389.09 1113.36 1385.04H1125.44C1124.21 1389.84 1121.79 1393.65 1118.16 1396.48C1114.53 1399.31 1110 1400.72 1104.56 1400.72C1100.29 1400.72 1096.51 1399.79 1093.2 1397.92C1089.89 1396 1087.31 1393.33 1085.44 1389.92C1083.57 1386.45 1082.64 1382.43 1082.64 1377.84ZM1144.85 1340.8V1400H1133.65V1340.8H1144.85ZM1197.75 1355.68V1400H1186.47V1394.4C1185.03 1396.32 1183.14 1397.84 1180.79 1398.96C1178.5 1400.03 1175.99 1400.56 1173.27 1400.56C1169.8 1400.56 1166.74 1399.84 1164.07 1398.4C1161.4 1396.91 1159.3 1394.75 1157.75 1391.92C1156.26 1389.04 1155.51 1385.63 1155.51 1381.68V1355.68H1166.71V1380.08C1166.71 1383.6 1167.59 1386.32 1169.35 1388.24C1171.11 1390.11 1173.51 1391.04 1176.55 1391.04C1179.64 1391.04 1182.07 1390.11 1183.83 1388.24C1185.59 1386.32 1186.47 1383.6 1186.47 1380.08V1355.68H1197.75ZM1220 1362.16C1221.44 1360.03 1223.41 1358.29 1225.92 1356.96C1228.48 1355.63 1231.39 1354.96 1234.64 1354.96C1238.43 1354.96 1241.84 1355.89 1244.88 1357.76C1247.97 1359.63 1250.4 1362.29 1252.16 1365.76C1253.97 1369.17 1254.88 1373.15 1254.88 1377.68C1254.88 1382.21 1253.97 1386.24 1252.16 1389.76C1250.4 1393.23 1247.97 1395.92 1244.88 1397.84C1241.84 1399.76 1238.43 1400.72 1234.64 1400.72C1231.33 1400.72 1228.43 1400.08 1225.92 1398.8C1223.47 1397.47 1221.49 1395.76 1220 1393.68V1400H1208.8V1340.8H1220V1362.16ZM1243.44 1377.68C1243.44 1375.01 1242.88 1372.72 1241.76 1370.8C1240.69 1368.83 1239.25 1367.33 1237.44 1366.32C1235.68 1365.31 1233.76 1364.8 1231.68 1364.8C1229.65 1364.8 1227.73 1365.33 1225.92 1366.4C1224.16 1367.41 1222.72 1368.91 1221.6 1370.88C1220.53 1372.85 1220 1375.17 1220 1377.84C1220 1380.51 1220.53 1382.83 1221.6 1384.8C1222.72 1386.77 1224.16 1388.29 1225.92 1389.36C1227.73 1390.37 1229.65 1390.88 1231.68 1390.88C1233.76 1390.88 1235.68 1390.35 1237.44 1389.28C1239.25 1388.21 1240.69 1386.69 1241.76 1384.72C1242.88 1382.75 1243.44 1380.4 1243.44 1377.68Z" fill="white"/>
</svg>
