<svg width="749" height="701" viewBox="0 0 749 701" fill="none" xmlns="http://www.w3.org/2000/svg">
<path d="M747.492 451.641L207.086 699.692L270.666 124.293L747.492 451.641Z" fill="#FB4A1E" stroke="#FB4A1E"/>
<path d="M310.623 386.78C303.341 389.848 299.896 393.703 299.896 393.703C293.631 400.232 292.144 405.818 292.144 405.818C296.137 401.806 303.341 398.58 303.341 398.58C304.594 394.017 310.623 386.78 310.623 386.78Z" fill="white"/>
<path d="M292.144 406.368C292.065 406.368 291.987 406.368 291.909 406.29C291.752 406.211 291.595 405.975 291.674 405.739C291.752 405.503 293.318 399.918 299.504 393.388C299.661 393.231 303.106 389.376 310.388 386.387C310.623 386.308 310.858 386.387 310.937 386.544C311.093 386.701 311.093 386.937 310.937 387.173C310.858 387.252 304.986 394.332 303.733 398.816C303.733 398.974 303.576 399.052 303.498 399.131C303.419 399.131 296.294 402.356 292.379 406.211C292.379 406.29 292.3 406.29 292.144 406.368ZM308.979 388.039C305.769 389.533 302.793 391.5 300.209 394.017C297.312 396.928 294.963 400.39 293.318 404.087C296.294 401.806 299.504 399.839 302.95 398.266C303.968 394.883 307.178 390.399 308.979 388.039Z" fill="white"/>
<path d="M320.725 396.535C324.718 390.556 332 386.387 332 386.387C326.754 384.577 321.194 384.184 315.791 385.207C310.232 389.061 306.082 397.4 306.082 397.4C310.78 396.063 315.791 395.748 320.725 396.535Z" fill="white"/>
<path d="M306.003 398.03C305.847 398.03 305.69 397.951 305.612 397.872C305.455 397.715 305.455 397.479 305.534 397.322C305.69 397.007 309.84 388.825 315.4 384.892C315.478 384.892 315.478 384.813 315.557 384.813C321.038 383.712 326.754 384.105 332.079 385.993C332.235 386.072 332.392 386.229 332.392 386.387C332.392 386.544 332.314 386.78 332.157 386.859C332.079 386.859 324.953 391.028 321.038 396.85C320.96 397.007 320.725 397.086 320.49 397.086C315.635 396.299 310.702 396.614 306.003 398.03C306.082 398.03 306.082 397.951 306.003 398.03ZM315.948 385.757C311.72 388.747 308.274 394.411 307.021 396.771C311.406 395.591 316.026 395.355 320.49 396.063C323.7 391.343 328.79 387.881 330.826 386.544C325.971 385.128 320.881 384.813 315.948 385.757Z" fill="white"/>
<path d="M294.258 406.998L301.227 411.089C300.992 407.47 302.401 401.412 302.401 401.412C296.529 404.166 294.258 406.998 294.258 406.998Z" fill="white"/>
<path d="M301.227 411.561C301.149 411.561 301.07 411.561 300.992 411.482L294.023 407.391C293.866 407.312 293.788 407.234 293.788 407.076C293.788 406.919 293.788 406.762 293.866 406.683C293.945 406.604 296.215 403.772 302.167 400.94C302.401 400.862 302.715 400.94 302.793 401.176C302.871 401.255 302.871 401.412 302.793 401.491C302.793 401.57 301.384 407.47 301.618 411.01C301.697 411.325 301.54 411.561 301.227 411.561ZM295.041 406.84L300.679 410.145C300.757 407.47 301.149 404.795 301.697 402.199C299.269 403.379 296.998 404.952 295.041 406.84Z" fill="white"/>
<path d="M304.986 400.154C303.733 404.244 303.185 408.492 303.419 412.741C303.968 413.134 304.516 413.606 304.986 414.078C304.986 414.078 310.858 410.695 314.695 410.459C314.695 410.459 316.496 401.806 319.237 398.502C319.237 398.502 311.093 397.715 304.986 400.154Z" fill="white"/>
<path d="M304.986 414.55C304.829 414.55 304.672 414.471 304.594 414.393C304.124 413.921 303.654 413.527 303.106 413.134C302.95 413.055 302.871 412.898 302.871 412.741C302.636 408.414 303.185 404.087 304.516 399.918C304.594 399.76 304.672 399.682 304.829 399.603C310.937 397.164 319.002 397.951 319.315 397.951C319.55 397.951 319.785 398.266 319.707 398.502C319.707 398.58 319.628 398.659 319.628 398.738C317.044 401.884 315.243 410.381 315.165 410.459C315.087 410.695 314.93 410.853 314.695 410.853C311.015 411.089 305.22 414.393 305.142 414.393C305.142 414.55 305.064 414.55 304.986 414.55ZM303.889 412.505C304.281 412.819 304.751 413.134 305.064 413.527C306.317 412.819 310.937 410.459 314.304 410.066C314.617 408.492 316.105 402.278 318.297 399.052C316.105 398.895 310.075 398.816 305.377 400.626C304.202 404.402 303.654 408.414 303.889 412.505Z" fill="white"/>
<path d="M316.966 409.83C320.881 408.965 325.893 409.83 325.893 409.83C326.989 407.627 332.314 403.222 332.314 403.222C328.947 400.311 321.508 398.738 321.508 398.738C318.375 403.536 316.966 409.83 316.966 409.83Z" fill="white"/>
<path d="M325.893 410.381C325.736 410.381 320.881 409.594 317.123 410.381C316.966 410.381 316.809 410.381 316.653 410.223C316.496 410.145 316.496 409.908 316.496 409.751C317.436 405.739 319.002 401.963 321.116 398.502C321.194 398.344 321.429 398.266 321.586 398.266C321.899 398.344 329.181 399.839 332.627 402.828C332.862 402.986 332.862 403.3 332.705 403.536C332.705 403.615 332.627 403.615 332.627 403.615C332.549 403.694 327.302 407.942 326.284 410.066C326.284 410.302 326.128 410.381 325.893 410.381ZM321.038 408.964C322.604 408.964 324.092 409.043 325.579 409.279C326.754 407.312 330.278 404.244 331.531 403.222C328.555 400.94 323.074 399.603 321.743 399.288C319.863 402.356 318.454 405.739 317.592 409.2C318.767 409.043 319.942 408.964 321.038 408.964Z" fill="white"/>
<path d="M301.384 416.595V414.707C298.721 411.875 292.144 409.122 292.144 409.122L290.734 410.853C289.403 421.158 292.379 427.373 292.379 427.373C294.571 423.125 297.703 419.506 301.384 416.595Z" fill="white"/>
<path d="M292.379 427.766C292.222 427.766 292.065 427.688 291.987 427.452C291.83 427.216 288.933 421.079 290.264 410.695C290.264 410.617 290.343 410.538 290.343 410.459L291.752 408.728C291.909 408.571 292.144 408.492 292.3 408.571C292.535 408.65 299.034 411.403 301.697 414.235C301.775 414.314 301.853 414.471 301.853 414.55V416.438C301.853 416.595 301.775 416.753 301.618 416.831C298.016 419.663 294.963 423.282 292.77 427.373C292.77 427.688 292.535 427.766 292.379 427.766ZM291.204 411.01C290.186 418.798 291.752 424.148 292.457 426.193C294.649 422.417 297.468 419.034 300.914 416.359V414.943C298.643 412.662 293.631 410.381 292.3 409.751L291.204 411.01Z" fill="white"/>
<path d="M304.516 417.303L304.202 417.382C304.202 417.382 305.769 424.62 308.196 427.53L311.015 424.305C311.015 424.305 306.943 419.191 304.516 417.303Z" fill="white"/>
<path d="M308.196 428.002C308.039 428.002 307.883 427.924 307.804 427.845C305.377 424.934 303.733 417.775 303.733 417.461C303.654 417.225 303.811 416.989 304.046 416.91L304.359 416.831C304.516 416.831 304.672 416.831 304.751 416.91C307.256 418.798 311.172 423.833 311.328 423.99C311.485 424.148 311.485 424.462 311.328 424.62L308.509 427.845C308.509 428.002 308.353 428.002 308.196 428.002ZM304.907 418.247C305.377 420.214 306.63 424.462 308.196 426.744L310.389 424.305C308.666 422.181 306.865 420.135 304.907 418.247Z" fill="white"/>
<path d="M306.865 415.494C309.214 417.382 313.129 422.417 313.129 422.417L314.539 421.315C314.225 418.405 314.147 415.573 314.382 412.662C311.72 413.291 309.214 414.235 306.865 415.494Z" fill="white"/>
<path d="M313.129 422.889C312.973 422.889 312.816 422.81 312.738 422.731C312.738 422.653 308.822 417.697 306.552 415.887C306.317 415.73 306.317 415.415 306.552 415.179L306.63 415.101C309.057 413.842 311.563 412.819 314.225 412.19C314.382 412.19 314.539 412.19 314.617 412.269C314.695 412.347 314.774 412.505 314.774 412.662C314.539 415.494 314.617 418.405 314.93 421.237C314.93 421.394 314.93 421.551 314.774 421.709L313.364 422.889C313.364 422.889 313.286 422.889 313.129 422.889ZM307.726 415.573C309.684 417.461 311.485 419.506 313.207 421.709L313.99 421.079C313.677 418.483 313.599 415.809 313.834 413.213C311.72 413.842 309.684 414.629 307.726 415.573Z" fill="white"/>
<path d="M316.496 412.111C316.261 414.707 316.261 417.303 316.496 419.899C318.219 418.719 320.02 417.697 321.899 416.91C321.899 416.91 323.779 413.055 324.483 412.111C324.405 412.111 321.664 411.403 316.496 412.111Z" fill="white"/>
<path d="M316.496 420.371C316.418 420.371 316.34 420.371 316.34 420.371C316.183 420.293 316.105 420.135 316.026 419.978C315.791 417.382 315.791 414.707 316.026 412.111C316.026 411.875 316.183 411.718 316.418 411.639C321.664 410.853 324.405 411.639 324.562 411.639C324.718 411.639 324.875 411.797 324.875 411.954C324.953 412.111 324.875 412.269 324.796 412.426C324.17 413.291 322.291 417.146 322.291 417.146C322.212 417.225 322.134 417.303 322.056 417.382C320.177 418.169 318.454 419.191 316.731 420.293C316.653 420.371 316.575 420.45 316.496 420.371ZM316.966 412.583C316.809 414.707 316.809 416.91 316.888 419.034C318.376 418.09 319.942 417.225 321.508 416.517C321.821 415.887 322.917 413.685 323.622 412.426C321.429 412.19 319.159 412.269 316.966 412.583Z" fill="white"/>
<path d="M324.718 415.887C326.206 415.415 327.694 415.101 329.26 414.865L331.531 413.37C330.356 412.583 326.911 412.111 326.911 412.111L324.718 415.887Z" fill="white"/>
<path d="M324.718 416.359C324.562 416.359 324.483 416.281 324.327 416.202C324.17 416.045 324.17 415.809 324.248 415.651L326.441 411.954C326.519 411.797 326.754 411.718 326.911 411.718C327.302 411.797 330.591 412.269 331.766 413.055C331.922 413.134 332 413.291 332 413.449C332 413.606 331.922 413.763 331.766 413.842L329.495 415.337C329.416 415.337 329.338 415.415 329.26 415.415C327.772 415.573 326.284 415.887 324.875 416.359C324.796 416.359 324.796 416.359 324.718 416.359ZM327.067 412.662L325.736 415.022C326.832 414.786 327.929 414.55 329.025 414.393L330.434 413.449C329.416 413.134 328.242 412.819 327.067 412.662Z" fill="white"/>
<path d="M293.318 429.969C295.276 435.318 301.932 440.983 301.932 440.983C302.323 436.184 306.787 429.418 306.787 429.418C304.751 427.373 302.088 418.798 302.088 418.798C296.764 422.81 293.318 429.969 293.318 429.969Z" fill="white"/>
<path d="M302.01 441.455C301.932 441.455 301.775 441.455 301.697 441.376C301.384 441.14 294.884 435.554 292.927 430.126C292.848 429.969 292.848 429.89 292.927 429.733C293.083 429.418 296.45 422.496 301.853 418.405C302.01 418.326 302.167 418.247 302.323 418.326C302.48 418.405 302.558 418.483 302.636 418.641C302.636 418.719 305.299 427.058 307.256 429.025C307.413 429.182 307.413 429.418 307.335 429.654C307.335 429.733 302.95 436.341 302.558 440.983C302.558 441.14 302.401 441.297 302.245 441.376C302.088 441.455 302.01 441.455 302.01 441.455ZM293.866 429.969C295.432 434.138 299.896 438.465 301.618 439.96C302.323 435.79 305.377 430.677 306.238 429.418C304.516 427.294 302.48 421.551 301.853 419.585C297.39 423.204 294.414 428.868 293.866 429.969Z" fill="white"/>
<path d="M316.026 431.857C315.791 430.756 312.346 426.036 312.346 426.036L309.449 429.34C310.702 431.228 315.087 435.24 315.087 435.24C315.322 434.138 315.635 433.037 316.026 431.857Z" fill="white"/>
<path d="M315.087 435.79C314.93 435.79 314.852 435.712 314.774 435.633C314.617 435.476 310.31 431.542 309.057 429.654C308.901 429.497 308.979 429.261 309.057 429.025L311.955 425.721C312.111 425.485 312.424 425.485 312.659 425.642L312.738 425.721C313.364 426.508 316.261 430.598 316.496 431.778C316.496 431.857 316.496 431.936 316.496 432.014C316.105 433.037 315.791 434.138 315.635 435.24C315.635 435.397 315.557 435.633 315.322 435.712C315.243 435.79 315.165 435.79 315.087 435.79ZM310.075 429.497C311.485 431.228 313.129 432.88 314.774 434.374C315.008 433.509 315.322 432.408 315.478 431.936C314.539 430.205 313.521 428.474 312.268 426.901L310.075 429.497Z" fill="white"/>
<path d="M319.785 424.462C320.02 422.967 320.255 421.394 320.725 419.978C319.55 420.293 316.731 422.259 316.731 422.259C316.731 422.259 317.749 426.114 318.141 427.137L319.785 424.462Z" fill="white"/>
<path d="M318.141 427.609C317.906 427.609 317.749 427.452 317.671 427.294C317.279 426.272 316.34 422.495 316.261 422.338C316.183 422.102 316.261 421.945 316.418 421.787C316.731 421.551 319.315 419.821 320.49 419.427C320.646 419.349 320.803 419.427 320.96 419.585C321.116 419.742 321.116 419.899 321.116 420.057C320.725 421.473 320.411 422.967 320.177 424.462C320.177 424.541 320.177 424.62 320.098 424.698L318.454 427.373C318.454 427.452 318.297 427.609 318.141 427.609ZM317.358 422.417C317.514 423.125 317.984 424.777 318.297 425.957L319.315 424.305C319.472 423.125 319.707 421.945 320.02 420.765C319.08 421.237 318.219 421.787 317.358 422.417Z" fill="white"/>
<path d="M308.118 431.385C305.612 434.689 303.889 442.32 303.889 442.32C305.612 444.995 314.46 447.197 314.46 447.197C313.99 444.051 313.99 440.747 314.46 437.6C312.424 436.341 308.118 431.385 308.118 431.385Z" fill="white"/>
<path d="M314.539 447.669H314.382C313.99 447.591 305.299 445.309 303.498 442.556C303.419 442.477 303.419 442.32 303.419 442.241C303.498 441.927 305.22 434.453 307.726 431.149C307.804 430.992 307.961 430.992 308.118 430.992C308.274 430.992 308.431 431.07 308.509 431.149C308.587 431.228 312.738 436.105 314.774 437.285C314.93 437.364 315.008 437.6 315.008 437.757C314.539 440.904 314.539 444.051 315.008 447.197C315.008 447.355 315.008 447.512 314.852 447.669C314.774 447.669 314.617 447.669 314.539 447.669ZM304.437 442.163C305.847 443.972 311.25 445.781 313.912 446.489C313.599 443.579 313.599 440.668 313.99 437.836C312.189 436.577 309.292 433.352 308.196 432.172C306.16 435.24 304.672 440.983 304.437 442.163Z" fill="white"/>
<path d="M318.767 437.836C318.219 436.97 317.358 434.846 317.358 434.846L316.731 436.734L318.767 437.836Z" fill="white"/>
<path d="M318.767 438.308C318.689 438.308 318.61 438.308 318.532 438.229L316.575 437.128C316.34 437.049 316.261 436.813 316.34 436.577L316.888 434.689C316.966 434.453 317.123 434.374 317.358 434.296C317.592 434.296 317.749 434.374 317.827 434.61C317.827 434.61 318.689 436.656 319.237 437.521C319.315 437.678 319.315 437.993 319.159 438.151C319.002 438.229 318.845 438.308 318.767 438.308Z" fill="white"/>
<path d="M316.575 447.748C318.141 447.984 319.785 448.063 321.351 448.063C320.96 445.703 320.411 443.343 319.785 440.983L316.496 439.016C316.496 439.016 316.026 445.86 316.575 447.748Z" fill="white"/>
<path d="M320.411 448.613C319.08 448.613 317.827 448.456 316.496 448.299C316.34 448.299 316.183 448.141 316.105 447.984C315.478 445.939 315.948 439.252 315.948 439.016C315.948 438.859 316.026 438.701 316.183 438.623C316.34 438.544 316.496 438.544 316.653 438.623L319.942 440.511C320.02 440.589 320.098 440.668 320.177 440.747C320.881 443.107 321.429 445.545 321.821 447.905C321.821 448.063 321.821 448.141 321.743 448.299C321.664 448.377 321.508 448.456 321.429 448.456C321.116 448.535 320.803 448.613 320.411 448.613ZM316.966 447.355C318.219 447.512 319.472 447.591 320.803 447.591C320.411 445.467 319.942 443.343 319.393 441.297L316.888 439.881C316.809 442.005 316.653 445.781 316.966 447.355Z" fill="white"/>
<path d="M288.15 414.943C288.15 414.943 279.772 428.474 288.15 445.073C288.15 445.073 288.307 436.262 290.969 429.969C290.891 429.969 287.915 420.686 288.15 414.943Z" fill="white"/>
<path d="M288.15 445.545C287.994 445.545 287.837 445.467 287.759 445.309C282.747 435.712 282.747 424.305 287.759 414.707C287.837 414.55 288.072 414.471 288.307 414.471C288.542 414.55 288.698 414.707 288.698 414.943C288.542 420.529 291.439 429.733 291.517 429.812C291.596 429.89 291.596 430.048 291.517 430.126C288.933 436.184 288.698 444.916 288.698 444.995C288.698 445.231 288.542 445.388 288.307 445.467L288.15 445.545ZM287.68 416.91C284 425.249 284 434.768 287.759 443.107C287.994 440.196 288.62 434.532 290.499 429.969C290.029 428.789 287.994 422.181 287.68 416.91Z" fill="white"/>
<path d="M319.707 461.436C319.707 461.436 314.774 452.783 314.93 449.557C314.93 449.557 312.033 449.085 303.419 444.68C303.419 444.68 302.871 454.592 305.69 460.02C305.612 460.02 312.894 462.302 319.707 461.436Z" fill="white"/>
<path d="M316.418 462.144C312.738 462.144 309.057 461.594 305.534 460.571C305.377 460.571 305.299 460.414 305.22 460.335C302.323 454.828 302.871 445.152 302.871 444.68C302.871 444.523 302.95 444.365 303.106 444.287C303.263 444.208 303.419 444.208 303.576 444.287C311.955 448.613 314.93 449.085 314.93 449.085C315.165 449.164 315.322 449.321 315.322 449.557C315.243 452.626 320.02 461.122 320.098 461.2C320.255 461.436 320.098 461.751 319.863 461.908C319.785 461.908 319.785 461.987 319.707 461.987C318.61 462.066 317.514 462.144 316.418 462.144ZM306.003 459.627C310.232 460.807 314.539 461.279 318.924 460.964C317.827 458.998 314.617 452.862 314.382 449.872C313.364 449.636 310.31 448.692 303.811 445.388C303.811 447.827 303.811 455.143 306.003 459.627Z" fill="white"/>
<path d="M332 446.332L328.007 443.579L324.013 442.792C324.013 442.792 326.363 447.355 326.597 447.512C326.832 447.669 330.513 447.197 332 446.332Z" fill="white"/>
<path d="M327.067 448.063C326.832 448.063 326.597 448.063 326.363 447.905C326.284 447.827 325.971 447.591 323.622 442.949C323.544 442.792 323.544 442.556 323.622 442.399C323.7 442.241 323.935 442.163 324.092 442.241L328.085 443.028C328.164 443.028 328.242 443.028 328.242 443.107L332.235 445.86C332.47 446.017 332.549 446.332 332.392 446.568C332.314 446.647 332.314 446.647 332.235 446.725C330.591 447.512 328.868 447.984 327.067 448.063ZM326.911 447.119C328.32 447.04 329.651 446.725 330.982 446.253L327.772 444.051L324.875 443.5C325.814 445.073 326.676 446.647 326.911 447.119Z" fill="white"/>
<path d="M334.35 387.724C328.947 389.848 322.995 396.928 322.995 396.928C328.79 397.715 334.115 401.648 334.271 401.806C334.506 401.648 339.753 397.636 345.547 396.928C345.625 396.928 339.674 389.848 334.35 387.724Z" fill="white"/>
<path d="M334.35 402.356C334.271 402.356 334.193 402.356 334.115 402.278C334.036 402.278 334.036 402.199 334.036 402.199C333.488 401.806 328.477 398.108 322.995 397.4C322.761 397.322 322.526 397.086 322.604 396.85C322.604 396.771 322.682 396.692 322.682 396.614C322.917 396.299 328.712 389.455 334.115 387.331C334.193 387.331 334.271 387.252 334.35 387.252C334.428 387.252 334.506 387.252 334.584 387.331C339.987 389.455 345.782 396.378 346.017 396.614C346.173 396.85 346.173 397.164 345.939 397.322C345.86 397.4 345.782 397.4 345.704 397.4C340.222 398.108 335.211 401.806 334.663 402.199C334.663 402.199 334.584 402.278 334.506 402.278C334.506 402.356 334.428 402.356 334.35 402.356ZM323.935 396.614C328.79 397.479 333.097 400.468 334.271 401.255C335.446 400.468 339.753 397.479 344.607 396.614C343.041 394.883 338.421 390.005 334.271 388.275C330.121 390.005 325.501 394.804 323.935 396.614Z" fill="white"/>
<path d="M323.465 418.483L322.917 420.135L324.953 418.169L323.465 418.483Z" fill="white"/>
<path d="M322.917 420.607C322.839 420.607 322.761 420.607 322.682 420.529C322.526 420.371 322.369 420.214 322.447 419.978L322.995 418.326C323.074 418.169 323.23 418.011 323.387 418.011L324.875 417.697C325.11 417.618 325.266 417.775 325.423 417.933C325.501 418.09 325.501 418.326 325.345 418.483L323.387 420.45C323.23 420.607 323.074 420.607 322.917 420.607Z" fill="white"/>
<path d="M314.93 423.676L314.382 424.148L315.4 425.406L314.93 423.676Z" fill="white"/>
<path d="M315.4 425.878C315.243 425.878 315.087 425.8 315.008 425.721L313.912 424.462C313.756 424.226 313.756 423.99 313.912 423.754L314.46 423.282C314.695 423.125 314.93 423.125 315.165 423.361C315.243 423.44 315.243 423.44 315.243 423.518L315.791 425.249C315.87 425.485 315.791 425.721 315.557 425.8C315.557 425.878 315.478 425.878 315.4 425.878Z" fill="white"/>
<path d="M302.793 458.84C301.305 453.806 300.835 448.613 301.384 443.421C296.607 440.275 292.3 432.722 292.3 432.722C288.933 438.308 290.891 449.715 290.891 449.715C294.963 454.986 302.793 458.84 302.793 458.84Z" fill="white"/>
<path d="M302.793 459.391C302.715 459.391 302.636 459.391 302.558 459.312C302.245 459.155 294.571 455.3 290.499 450.029C290.421 449.951 290.421 449.872 290.421 449.793C290.343 449.321 288.463 438.151 291.909 432.486C291.987 432.329 292.144 432.25 292.3 432.25C292.457 432.25 292.613 432.329 292.692 432.486C292.77 432.565 296.998 439.96 301.618 442.949C301.775 443.028 301.853 443.264 301.853 443.421C301.305 448.535 301.775 453.727 303.263 458.683C303.341 458.84 303.263 459.076 303.106 459.234C303.028 459.312 302.95 459.391 302.793 459.391ZM291.361 449.479C294.414 453.412 299.739 456.638 302.01 457.818C300.757 453.176 300.366 448.377 300.835 443.657C296.998 440.983 293.553 435.712 292.3 433.745C289.795 438.937 291.204 448.377 291.361 449.479Z" fill="white"/>
<path d="M321.664 449.951C320.803 450.58 316.731 449.951 316.731 449.951C317.749 454.199 321.664 461.043 321.664 461.043C322.447 458.054 321.664 449.951 321.664 449.951Z" fill="white"/>
<path d="M321.664 461.594C321.508 461.594 321.351 461.515 321.273 461.358C321.116 461.043 317.358 454.435 316.34 450.187C316.261 449.951 316.418 449.636 316.731 449.557C316.809 449.557 316.888 449.557 316.888 449.557C318.767 449.872 321.038 449.951 321.429 449.636C321.586 449.557 321.743 449.479 321.899 449.557C322.056 449.636 322.212 449.793 322.212 449.951C322.212 450.265 322.995 458.132 322.212 461.2C322.134 461.358 321.978 461.515 321.821 461.594H321.664ZM317.436 450.58C318.532 453.648 319.863 456.716 321.429 459.548C321.586 456.559 321.508 453.57 321.273 450.659C319.942 450.816 318.689 450.816 317.436 450.58Z" fill="white"/>
<path d="M332.392 456.952C329.965 454.986 327.772 452.783 325.893 450.265H324.327C325.11 451.76 324.64 460.492 324.64 460.492C328.164 459.627 332.392 456.952 332.392 456.952Z" fill="white"/>
<path d="M324.64 460.964C324.562 460.964 324.405 460.964 324.327 460.886C324.17 460.807 324.17 460.65 324.17 460.492C324.327 457.188 324.483 451.524 323.935 450.501C323.779 450.265 323.935 449.951 324.17 449.872C324.248 449.872 324.327 449.793 324.405 449.793H325.971C326.128 449.793 326.284 449.872 326.363 449.951C328.242 452.39 330.356 454.592 332.783 456.559C332.94 456.638 333.018 456.795 332.94 456.952C332.94 457.11 332.862 457.267 332.705 457.346C332.549 457.424 328.32 460.178 324.796 460.964H324.64ZM325.031 450.737C325.423 452.862 325.266 457.896 325.188 459.863C327.459 459.155 329.573 458.132 331.609 456.874C329.416 455.064 327.459 453.019 325.736 450.737H325.031Z" fill="white"/>
<path d="M334.35 447.905C332.392 448.771 330.434 449.4 328.477 449.715C328.477 449.715 331.844 454.042 334.35 455.458V455.536L334.428 455.458L334.506 455.536V455.458C337.012 454.042 340.379 449.715 340.379 449.715C338.265 449.4 336.307 448.771 334.35 447.905Z" fill="white"/>
<path d="M334.35 456.008C334.193 456.008 334.036 456.008 333.958 455.93C333.88 455.851 333.801 455.851 333.801 455.772C331.296 454.199 328.164 450.187 328.007 450.029C327.929 449.872 327.85 449.715 327.929 449.557C328.007 449.4 328.085 449.243 328.32 449.243C330.278 448.849 332.079 448.299 333.958 447.512L334.036 447.433C334.115 447.355 334.193 447.355 334.35 447.355C334.506 447.355 334.584 447.355 334.741 447.433C334.819 447.433 334.819 447.512 334.898 447.591C336.699 448.299 338.5 448.928 340.457 449.243C340.614 449.321 340.771 449.4 340.849 449.557C340.927 449.715 340.849 449.872 340.771 450.029C340.614 450.187 337.482 454.199 334.976 455.772C334.898 455.851 334.898 455.93 334.819 455.93C334.584 456.008 334.506 456.008 334.35 456.008ZM329.26 450.029C330.199 451.209 332.47 453.806 334.271 454.907C336.072 453.806 338.343 451.209 339.283 450.029C337.56 449.636 335.837 449.164 334.271 448.456C332.705 449.164 330.982 449.636 329.26 450.029Z" fill="white"/>
<path d="M303.889 461.594C303.889 461.594 295.354 457.975 292.144 454.12C292.144 454.12 295.197 467.494 312.503 473.63C312.503 473.709 306.552 468.359 303.889 461.594Z" fill="white"/>
<path d="M312.503 474.181C312.424 474.181 312.424 474.181 312.346 474.181C303.263 470.955 298.095 465.763 295.432 461.908C293.71 459.627 292.457 457.031 291.674 454.278C291.595 454.042 291.83 453.727 292.065 453.727C292.222 453.727 292.379 453.727 292.535 453.884C295.667 457.503 304.046 461.122 304.124 461.2C304.281 461.279 304.359 461.358 304.359 461.436C306.943 468.045 312.816 473.237 312.816 473.315C312.973 473.473 313.051 473.709 312.894 473.945C312.816 474.102 312.659 474.181 312.503 474.181ZM293.24 456.008C294.728 459.627 299.113 467.651 310.467 472.45C307.57 469.461 305.142 465.92 303.498 462.066C302.401 461.515 296.764 458.919 293.24 456.008Z" fill="white"/>
<path d="M306.865 462.538C306.865 462.538 311.485 471.821 317.592 474.731H318.767C318.767 474.731 320.96 467.415 321.273 464.19L320.881 463.324C320.96 463.482 312.503 464.583 306.865 462.538Z" fill="white"/>
<path d="M318.845 475.282H317.671C317.592 475.282 317.514 475.282 317.436 475.203C311.25 472.214 306.63 463.167 306.473 462.774C306.317 462.538 306.473 462.223 306.708 462.144C306.787 462.066 306.943 462.066 307.1 462.144C312.503 464.032 320.881 463.01 320.96 463.01C321.194 463.01 321.351 463.088 321.429 463.246L321.821 464.032C321.821 464.111 321.899 464.19 321.899 464.347C321.586 467.573 319.393 474.653 319.315 474.967C319.237 475.203 319.08 475.361 318.845 475.282ZM317.749 474.338H318.454C318.924 472.843 320.568 467.179 320.881 464.426L320.646 464.032C319.08 464.19 312.816 464.819 307.883 463.482C309.292 465.92 313.051 471.978 317.749 474.338Z" fill="white"/>
<path d="M332.47 473.237C329.573 471.978 323.857 466.786 323.857 466.786C323.23 469.618 322.526 472.371 321.586 475.046C325.266 475.203 328.947 474.653 332.47 473.237Z" fill="white"/>
<path d="M322.761 475.597C322.369 475.597 321.977 475.597 321.586 475.597C321.429 475.597 321.273 475.518 321.194 475.361C321.116 475.203 321.116 475.046 321.116 474.967C321.977 472.293 322.761 469.539 323.387 466.707C323.387 466.55 323.544 466.392 323.7 466.314C323.857 466.235 324.092 466.314 324.17 466.392C324.248 466.471 329.808 471.506 332.627 472.765C332.783 472.843 332.94 473.001 332.94 473.237C332.94 473.473 332.862 473.63 332.627 473.709C329.495 474.967 326.128 475.597 322.761 475.597ZM322.212 474.574C325.266 474.653 328.32 474.181 331.217 473.158C328.712 471.506 326.363 469.697 324.17 467.73C323.7 469.854 322.682 473.237 322.212 474.574Z" fill="white"/>
<path d="M334.35 474.81H334.193V474.889C333.41 475.282 329.26 477.091 322.291 477.249C322.291 477.249 328.712 480.16 334.271 480.002C339.831 480.16 346.252 477.249 346.252 477.249C339.283 477.091 335.211 475.282 334.35 474.81Z" fill="white"/>
<path d="M334.741 480.474H334.35C328.79 480.631 322.447 477.799 322.134 477.721C321.899 477.642 321.821 477.406 321.821 477.17C321.899 476.934 322.056 476.777 322.291 476.777C328.868 476.619 332.862 475.046 333.88 474.574L333.958 474.495C334.115 474.417 334.193 474.417 334.35 474.417C334.428 474.417 334.506 474.417 334.584 474.495C334.663 474.495 334.663 474.574 334.741 474.574C335.759 475.046 339.753 476.619 346.33 476.777C346.565 476.777 346.722 476.934 346.8 477.17C346.878 477.406 346.722 477.642 346.487 477.721C346.252 477.799 340.222 480.474 334.741 480.474ZM334.271 479.53C337.795 479.609 341.71 478.507 343.981 477.642C340.614 477.485 337.403 476.698 334.271 475.439C331.139 476.698 327.85 477.485 324.562 477.642C326.911 478.429 330.826 479.609 334.271 479.53Z" fill="white"/>
<path d="M334.35 385.049C338.813 383.476 343.511 382.611 348.288 382.532C348.288 382.532 341.71 378.913 334.35 378.913C326.989 378.913 320.411 382.532 320.411 382.532C325.11 382.689 329.808 383.555 334.35 385.049Z" fill="white"/>
<path d="M334.35 385.6H334.115C329.73 384.027 325.031 383.161 320.411 383.083C320.177 383.083 319.942 382.847 319.942 382.611C319.942 382.453 320.02 382.217 320.177 382.139C329.025 377.261 339.674 377.261 348.523 382.139C348.758 382.217 348.836 382.453 348.758 382.689C348.679 382.925 348.523 383.083 348.288 383.083C343.589 383.161 338.97 384.027 334.584 385.6C334.506 385.6 334.428 385.6 334.35 385.6ZM322.447 382.139C326.519 382.453 330.513 383.24 334.35 384.577C338.186 383.24 342.18 382.453 346.252 382.139C338.735 378.52 329.965 378.52 322.447 382.139Z" fill="white"/>
<path d="M376.477 405.818C376.477 405.818 374.989 400.232 368.725 393.703C368.725 393.703 365.201 389.848 357.997 386.78C357.997 386.78 364.027 393.939 365.28 398.58C365.201 398.659 372.484 401.884 376.477 405.818Z" fill="white"/>
<path d="M376.477 406.368C376.321 406.368 376.242 406.29 376.164 406.211C372.327 402.356 365.201 399.131 365.045 399.131C364.888 399.052 364.81 398.974 364.81 398.816C363.635 394.332 357.684 387.252 357.684 387.173C357.528 387.016 357.528 386.78 357.684 386.544C357.841 386.387 358.076 386.308 358.232 386.387C365.515 389.455 369.038 393.309 369.195 393.467C375.459 399.996 376.947 405.582 377.025 405.818C377.104 406.054 377.025 406.29 376.79 406.368C376.634 406.29 376.555 406.368 376.477 406.368ZM365.671 398.266C369.117 399.839 372.327 401.806 375.303 404.087C373.58 400.39 371.231 396.928 368.412 394.017C365.828 391.5 362.931 389.533 359.642 388.039C361.443 390.399 364.653 394.883 365.671 398.266Z" fill="white"/>
<path d="M336.699 386.387C336.699 386.387 343.981 390.556 347.974 396.535C352.908 395.748 357.919 396.063 362.696 397.479C362.696 397.479 358.546 389.14 352.986 385.285C347.505 384.184 341.867 384.577 336.699 386.387Z" fill="white"/>
<path d="M362.617 398.03C362.539 398.03 362.539 398.03 362.461 398.03C357.762 396.614 352.829 396.299 348.053 397.086C347.818 397.164 347.661 397.007 347.505 396.85C343.668 391.028 336.464 386.937 336.385 386.859C336.229 386.78 336.151 386.623 336.151 386.387C336.151 386.229 336.307 385.993 336.464 385.993C341.788 384.105 347.426 383.712 352.986 384.813C353.064 384.813 353.143 384.892 353.143 384.892C358.78 388.825 362.852 396.928 363.009 397.322C363.087 397.479 363.087 397.715 362.931 397.872C362.852 397.951 362.774 398.03 362.617 398.03ZM352.986 395.67C355.883 395.67 358.78 396.063 361.599 396.771C360.347 394.489 356.901 388.747 352.673 385.757C347.74 384.813 342.65 385.049 337.795 386.544C339.831 387.803 344.921 391.343 348.131 396.063C349.775 395.748 351.342 395.591 352.986 395.67Z" fill="white"/>
<path d="M374.363 406.998C374.363 406.998 372.17 404.166 366.219 401.412C366.219 401.412 367.629 407.47 367.394 411.089L374.363 406.998Z" fill="white"/>
<path d="M367.394 411.561C367.159 411.561 366.924 411.325 366.924 411.089C366.924 411.089 366.924 411.089 366.924 411.01C367.159 407.47 365.75 401.491 365.75 401.491C365.671 401.255 365.828 400.94 366.141 400.862C366.219 400.862 366.376 400.862 366.454 400.862C372.405 403.694 374.676 406.526 374.755 406.604C374.833 406.683 374.911 406.84 374.833 406.998C374.833 407.155 374.754 407.234 374.598 407.312L367.629 411.482C367.551 411.561 367.472 411.561 367.394 411.561ZM366.924 402.278C367.472 404.874 367.864 407.548 367.942 410.223L373.58 406.919C371.622 404.952 369.352 403.458 366.924 402.278Z" fill="white"/>
<path d="M363.635 400.154C357.528 397.715 349.384 398.58 349.384 398.58C352.125 401.884 353.926 410.538 353.926 410.538C357.762 410.774 363.635 414.157 363.635 414.157C364.105 413.685 364.653 413.213 365.201 412.819C365.436 408.492 364.888 404.244 363.635 400.154Z" fill="white"/>
<path d="M363.635 414.55C363.557 414.55 363.479 414.55 363.4 414.471C363.322 414.471 357.606 411.167 353.847 410.931C353.612 410.931 353.456 410.774 353.377 410.538C353.377 410.459 351.576 401.963 348.914 398.816C348.836 398.659 348.758 398.502 348.836 398.344C348.914 398.187 349.071 398.03 349.227 398.03C349.541 398.03 357.606 397.243 363.714 399.682C363.87 399.76 363.949 399.839 364.027 399.996C365.358 404.166 365.906 408.492 365.671 412.819C365.671 412.977 365.593 413.134 365.436 413.213C364.888 413.606 364.418 413.999 363.949 414.471C363.87 414.55 363.792 414.55 363.635 414.55ZM354.317 409.987C357.684 410.381 362.304 412.741 363.557 413.449C363.949 413.055 364.34 412.741 364.81 412.426C364.966 408.414 364.497 404.323 363.322 400.468C358.624 398.659 352.594 398.816 350.402 398.895C352.438 402.199 353.926 408.414 354.317 409.987Z" fill="white"/>
<path d="M336.229 403.222C336.229 403.222 341.632 407.627 342.65 409.83C342.65 409.83 347.661 408.965 351.576 409.83C351.576 409.83 350.245 403.458 347.035 398.738C347.035 398.816 339.596 400.311 336.229 403.222Z" fill="white"/>
<path d="M342.728 410.381C342.571 410.381 342.337 410.302 342.258 410.066C341.24 407.942 335.994 403.615 335.916 403.615C335.837 403.536 335.759 403.379 335.759 403.222C335.759 403.064 335.837 402.907 335.916 402.828C339.361 399.839 346.643 398.344 346.957 398.266C347.113 398.266 347.348 398.344 347.426 398.502C349.619 401.963 351.185 405.739 352.046 409.751C352.046 409.908 352.046 410.066 351.89 410.223C351.733 410.381 351.576 410.381 351.42 410.381C347.74 409.594 342.806 410.381 342.728 410.381ZM337.012 403.222C338.265 404.323 341.788 407.391 342.963 409.279C345.625 408.886 348.288 408.886 350.95 409.2C350.089 405.739 348.679 402.356 346.8 399.288C345.469 399.603 339.987 400.94 337.012 403.222Z" fill="white"/>
<path d="M367.237 414.707V416.595C370.918 419.506 374.05 423.125 376.242 427.294C376.242 427.294 379.296 421.158 377.887 410.774L376.477 409.043C376.477 409.043 369.821 411.875 367.237 414.707Z" fill="white"/>
<path d="M376.242 427.766C376.086 427.766 375.929 427.688 375.851 427.53C373.658 423.44 370.683 419.821 367.002 416.989C366.846 416.91 366.767 416.753 366.767 416.595V414.707C366.767 414.55 366.846 414.471 366.924 414.393C369.586 411.561 376.086 408.807 376.321 408.729C376.555 408.65 376.712 408.729 376.869 408.886L378.278 410.617C378.356 410.695 378.356 410.774 378.356 410.853C379.766 421.237 376.79 427.373 376.634 427.609C376.555 427.688 376.399 427.766 376.242 427.766ZM367.707 416.359C371.153 419.034 373.971 422.417 376.164 426.193C376.869 424.148 378.435 418.798 377.417 411.01L376.321 409.673C374.989 410.302 369.978 412.583 367.707 414.865V416.359Z" fill="white"/>
<path d="M364.105 417.303C361.678 419.191 357.606 424.305 357.606 424.305L360.425 427.53C362.852 424.62 364.418 417.382 364.418 417.382L364.105 417.303Z" fill="white"/>
<path d="M360.425 428.002C360.268 428.002 360.19 427.924 360.033 427.845L357.214 424.62C357.058 424.462 357.058 424.148 357.214 423.99C357.371 423.754 361.364 418.798 363.792 416.91C363.949 416.831 364.105 416.753 364.183 416.831L364.497 416.91C364.732 416.989 364.888 417.225 364.81 417.461C364.732 417.775 363.165 424.856 360.738 427.845C360.738 428.002 360.581 428.081 360.425 428.002ZM358.232 424.305L360.425 426.744C361.991 424.462 363.244 420.135 363.714 418.247C361.756 420.135 359.955 422.181 358.232 424.305Z" fill="white"/>
<path d="M355.492 422.417C355.492 422.417 359.485 417.382 361.756 415.494C359.407 414.235 356.901 413.291 354.317 412.583C354.552 415.494 354.474 418.326 354.161 421.237L355.492 422.417Z" fill="white"/>
<path d="M355.492 422.889C355.413 422.889 355.257 422.81 355.178 422.81L353.847 421.709C353.691 421.63 353.612 421.394 353.691 421.237C354.004 418.405 354.082 415.494 353.847 412.662C353.847 412.505 353.926 412.347 354.004 412.269C354.082 412.19 354.239 412.111 354.395 412.19C357.058 412.898 359.564 413.842 361.991 415.101C362.148 415.179 362.226 415.337 362.226 415.494C362.226 415.651 362.148 415.809 362.069 415.887C359.877 417.697 355.883 422.653 355.883 422.731C355.805 422.81 355.648 422.889 355.492 422.889ZM354.63 421.079L355.413 421.709C357.136 419.585 358.937 417.539 360.895 415.573C358.937 414.629 356.901 413.842 354.865 413.213C355.022 415.887 354.944 418.483 354.63 421.079Z" fill="white"/>
<path d="M352.125 419.899C352.36 417.303 352.36 414.707 352.125 412.111C346.957 411.325 344.216 412.111 344.216 412.111C344.842 413.055 346.722 416.91 346.722 416.91C348.601 417.775 350.48 418.719 352.125 419.899Z" fill="white"/>
<path d="M352.125 420.371C352.046 420.371 351.89 420.371 351.811 420.293C350.167 419.113 348.366 418.169 346.565 417.382C346.487 417.303 346.408 417.225 346.33 417.146C346.33 417.146 344.451 413.291 343.824 412.426C343.746 412.269 343.668 412.111 343.746 411.954C343.824 411.797 343.903 411.718 344.059 411.639C344.216 411.639 346.957 410.853 352.203 411.639C352.438 411.639 352.594 411.875 352.594 412.111C352.829 414.707 352.829 417.382 352.594 419.978C352.594 420.135 352.438 420.293 352.281 420.371C352.281 420.371 352.203 420.371 352.125 420.371ZM347.113 416.517C348.758 417.225 350.245 418.09 351.733 419.034C351.89 416.91 351.811 414.707 351.655 412.583C349.462 412.269 347.191 412.19 344.999 412.505C345.704 413.763 346.8 415.887 347.113 416.517Z" fill="white"/>
<path d="M343.903 415.887L341.71 412.19C341.71 412.19 338.186 412.662 337.09 413.449L339.361 414.943C340.927 415.022 342.415 415.337 343.903 415.887Z" fill="white"/>
<path d="M343.903 416.359C343.824 416.359 343.746 416.359 343.746 416.359C342.337 415.887 340.849 415.573 339.361 415.415C339.283 415.415 339.204 415.415 339.126 415.337L336.855 413.842C336.62 413.685 336.542 413.37 336.699 413.134C336.699 413.055 336.777 413.055 336.855 412.977C338.03 412.19 341.319 411.639 341.71 411.639C341.945 411.639 342.102 411.718 342.18 411.875L344.372 415.573C344.529 415.809 344.451 416.123 344.216 416.281C344.138 416.281 344.059 416.281 343.903 416.359ZM339.596 414.393C340.692 414.55 341.788 414.707 342.885 415.022L341.554 412.662C340.379 412.819 339.283 413.055 338.186 413.449L339.596 414.393Z" fill="white"/>
<path d="M375.303 429.969C375.303 429.969 371.936 422.889 366.533 418.798C366.533 418.798 363.87 427.294 361.834 429.418C361.834 429.418 366.298 436.184 366.689 440.983C366.611 440.983 373.345 435.318 375.303 429.969Z" fill="white"/>
<path d="M366.611 441.455C366.533 441.455 366.454 441.455 366.454 441.455C366.298 441.376 366.141 441.219 366.141 441.061C365.75 436.42 361.364 429.733 361.364 429.733C361.208 429.576 361.286 429.261 361.443 429.104C363.4 427.137 366.063 418.798 366.063 418.719C366.141 418.483 366.454 418.326 366.689 418.405C366.767 418.405 366.846 418.483 366.846 418.483C372.249 422.574 375.616 429.497 375.772 429.812C375.851 429.969 375.851 430.048 375.772 430.205C373.815 435.633 367.316 441.219 367.002 441.455C366.846 441.376 366.767 441.455 366.611 441.455ZM362.382 429.418C363.244 430.756 366.298 435.79 367.002 439.96C368.725 438.387 373.188 434.06 374.755 429.969C374.206 428.868 371.231 423.204 366.767 419.585C366.063 421.551 364.105 427.294 362.382 429.418Z" fill="white"/>
<path d="M353.534 435.318C353.534 435.318 357.997 431.306 359.172 429.418L356.275 426.114C356.275 426.114 352.829 430.834 352.594 431.936C352.986 433.037 353.299 434.138 353.534 435.318Z" fill="white"/>
<path d="M353.534 435.79C353.456 435.79 353.377 435.79 353.377 435.79C353.221 435.712 353.064 435.554 353.064 435.318C352.829 434.217 352.594 433.116 352.203 432.093C352.203 432.014 352.203 431.936 352.203 431.857C352.438 430.677 355.413 426.665 355.961 425.8C356.118 425.564 356.431 425.564 356.666 425.721L356.745 425.8L359.642 429.104C359.798 429.261 359.798 429.497 359.642 429.733C358.389 431.7 354.082 435.554 353.926 435.712C353.769 435.79 353.691 435.869 353.534 435.79ZM353.143 431.857C353.299 432.329 353.691 433.43 353.847 434.296C355.492 432.801 357.136 431.149 358.546 429.418L356.275 426.822C355.1 428.474 354.004 430.126 353.143 431.857Z" fill="white"/>
<path d="M347.896 419.899C348.288 421.394 348.601 422.889 348.836 424.384L350.48 427.058C350.872 426.036 351.89 422.181 351.89 422.181C351.89 422.181 349.071 420.214 347.896 419.899Z" fill="white"/>
<path d="M350.48 427.609C350.324 427.609 350.167 427.53 350.089 427.373L348.444 424.698C348.366 424.62 348.366 424.541 348.366 424.462C348.209 422.967 347.896 421.473 347.426 420.057C347.348 419.899 347.426 419.742 347.583 419.585C347.74 419.427 347.896 419.427 348.053 419.427C349.541 420.057 350.872 420.843 352.125 421.787C352.281 421.866 352.36 422.102 352.281 422.338C352.281 422.495 351.263 426.272 350.872 427.294C350.793 427.452 350.637 427.609 350.48 427.609ZM349.306 424.305L350.324 425.957C350.637 424.777 351.107 423.125 351.263 422.417C350.402 421.787 349.541 421.315 348.601 420.765C348.914 421.945 349.149 423.125 349.306 424.305Z" fill="white"/>
<path d="M364.732 442.32C364.732 442.32 362.931 434.689 360.503 431.385C360.503 431.385 356.275 436.341 354.161 437.678C354.63 440.825 354.63 444.129 354.161 447.276C354.082 447.197 363.009 444.916 364.732 442.32Z" fill="white"/>
<path d="M354.082 447.669C353.926 447.669 353.847 447.591 353.769 447.512C353.612 447.433 353.612 447.197 353.612 447.04C354.082 443.893 354.082 440.747 353.612 437.6C353.612 437.364 353.691 437.207 353.847 437.128C355.883 435.948 360.033 430.992 360.112 430.992C360.19 430.913 360.347 430.834 360.503 430.834C360.66 430.834 360.816 430.913 360.895 430.992C363.4 434.374 365.123 441.848 365.201 442.084C365.201 442.241 365.201 442.32 365.123 442.477C363.322 445.231 354.552 447.512 354.239 447.591L354.082 447.669ZM354.63 437.836C355.022 440.668 355.022 443.579 354.709 446.489C357.449 445.703 362.774 443.972 364.183 442.163C363.87 440.983 362.382 435.161 360.425 432.093C359.407 433.352 356.431 436.577 354.63 437.836Z" fill="white"/>
<path d="M351.811 436.734L351.263 434.846C351.263 434.846 350.402 436.97 349.854 437.836L351.811 436.734Z" fill="white"/>
<path d="M349.854 438.308C349.697 438.308 349.619 438.229 349.462 438.151C349.306 437.993 349.306 437.757 349.384 437.521C349.932 436.656 350.793 434.61 350.793 434.61C350.872 434.453 351.028 434.296 351.263 434.296C351.498 434.296 351.655 434.453 351.733 434.689L352.359 436.577C352.438 436.813 352.359 437.049 352.125 437.128L350.167 438.229C350.01 438.308 349.932 438.308 349.854 438.308Z" fill="white"/>
<path d="M352.046 447.748C352.673 445.86 352.203 439.016 352.203 439.016L348.914 440.904C348.288 443.264 347.74 445.624 347.348 447.984C348.836 448.063 350.48 447.984 352.046 447.748Z" fill="white"/>
<path d="M348.131 448.613C347.818 448.613 347.505 448.613 347.191 448.535C346.957 448.535 346.722 448.299 346.722 447.984C346.722 447.984 346.722 447.984 346.722 447.905C347.113 445.467 347.661 443.107 348.366 440.747C348.444 440.668 348.444 440.589 348.601 440.511L351.89 438.622C352.125 438.465 352.438 438.544 352.516 438.78C352.516 438.859 352.594 438.937 352.594 439.016C352.594 439.331 353.064 446.017 352.438 447.905C352.36 448.063 352.203 448.22 352.046 448.22C350.793 448.456 349.462 448.535 348.131 448.613ZM347.818 447.669C349.071 447.669 350.324 447.591 351.655 447.433C351.968 445.86 351.89 442.084 351.733 439.96L349.227 441.376C348.679 443.343 348.209 445.467 347.818 447.669Z" fill="white"/>
<path d="M380.549 414.943C380.706 420.765 377.73 429.969 377.73 429.969C380.392 436.262 380.549 445.073 380.549 445.073C388.928 428.474 380.549 414.943 380.549 414.943Z" fill="white"/>
<path d="M380.549 445.545H380.471C380.236 445.467 380.079 445.309 380.079 445.073C380.079 444.995 379.844 436.262 377.26 430.205C377.26 430.126 377.26 429.969 377.26 429.89C377.26 429.812 380.236 420.607 380.079 415.022C380.079 414.786 380.236 414.55 380.549 414.55C380.706 414.55 380.862 414.629 381.019 414.786C386.03 424.384 386.03 435.79 381.019 445.388C380.862 445.467 380.706 445.545 380.549 445.545ZM378.2 429.969C380.079 434.453 380.706 440.117 380.941 443.107C384.699 434.768 384.699 425.249 381.019 416.91C380.627 422.181 378.591 428.789 378.2 429.969Z" fill="white"/>
<path d="M363.009 460.02C365.828 454.514 365.28 444.68 365.28 444.68C356.666 449.085 353.769 449.557 353.769 449.557C353.847 452.783 348.992 461.436 348.992 461.436C355.727 462.302 363.009 460.02 363.009 460.02Z" fill="white"/>
<path d="M352.203 462.144C351.107 462.144 349.932 462.066 348.836 461.908C348.679 461.908 348.523 461.751 348.444 461.672C348.366 461.515 348.366 461.358 348.444 461.2C348.523 461.122 353.299 452.626 353.221 449.557C353.221 449.321 353.377 449.085 353.612 449.085C353.612 449.085 356.588 448.535 364.966 444.287C365.201 444.129 365.515 444.287 365.593 444.523C365.593 444.601 365.671 444.68 365.671 444.759C365.671 445.152 366.219 454.828 363.322 460.414C363.244 460.571 363.165 460.65 363.009 460.65C359.563 461.515 355.883 462.066 352.203 462.144ZM349.697 461.043C354.082 461.279 358.389 460.807 362.617 459.627C364.81 455.143 364.81 447.827 364.81 445.467C358.311 448.771 355.257 449.715 354.239 449.951C354.004 452.94 350.793 458.998 349.697 461.043Z" fill="white"/>
<path d="M340.614 443.579L336.62 446.332C338.108 447.197 341.632 447.748 341.945 447.512C342.258 447.276 344.529 442.792 344.529 442.792L340.614 443.579Z" fill="white"/>
<path d="M341.554 448.063C339.753 447.984 338.03 447.512 336.385 446.725C336.229 446.647 336.151 446.489 336.151 446.332C336.151 446.175 336.229 446.017 336.385 445.939L340.379 443.185C340.457 443.107 340.536 443.107 340.536 443.107L344.529 442.32C344.764 442.241 345.077 442.399 345.077 442.713C345.077 442.792 345.077 442.949 344.999 443.028C342.65 447.669 342.337 447.905 342.258 447.984C342.023 448.063 341.788 448.063 341.554 448.063ZM337.638 446.253C338.969 446.725 340.301 447.04 341.71 447.119C341.945 446.804 342.806 445.152 343.668 443.5L340.77 444.051L337.638 446.253Z" fill="white"/>
<path d="M339.987 409.83C338.265 407.863 336.385 405.975 334.35 404.323C332.314 405.975 330.434 407.863 328.712 409.83L328.398 410.223C330.434 410.381 334.271 412.033 334.35 412.111C334.506 412.033 338.265 410.381 340.301 410.223L339.987 409.83Z" fill="white"/>
<path d="M334.35 412.662C334.271 412.662 334.193 412.662 334.115 412.583C333.645 412.347 330.199 410.931 328.398 410.774C328.164 410.774 327.929 410.538 327.929 410.223C327.929 410.145 328.007 410.066 328.007 409.987L328.32 409.594C330.043 407.627 332 405.739 334.036 404.008C334.036 404.008 334.115 403.93 334.193 403.93C334.271 403.93 334.35 403.851 334.428 403.851C334.506 403.851 334.584 403.851 334.584 403.93C334.663 403.93 334.663 404.008 334.741 404.008C336.777 405.739 338.656 407.548 340.379 409.594L340.692 409.987C340.849 410.223 340.849 410.538 340.614 410.695C340.536 410.774 340.457 410.774 340.379 410.774C338.578 410.931 335.054 412.426 334.584 412.583C334.506 412.583 334.428 412.583 334.35 412.662ZM329.338 409.909C331.061 410.302 332.705 410.931 334.35 411.639C335.994 410.931 337.638 410.381 339.361 409.909C337.795 408.178 336.151 406.526 334.35 404.952C332.549 406.447 330.826 408.099 329.338 409.909Z" fill="white"/>
<path d="M345.156 418.483L343.668 418.169L345.704 420.135L345.156 418.483Z" fill="white"/>
<path d="M345.625 420.607C345.469 420.607 345.39 420.529 345.312 420.45L343.355 418.562C343.198 418.405 343.12 418.09 343.355 417.854C343.433 417.775 343.668 417.697 343.824 417.697L345.312 418.011C345.469 418.011 345.625 418.169 345.704 418.326L346.252 419.978C346.33 420.214 346.252 420.45 346.017 420.529C345.86 420.607 345.782 420.607 345.625 420.607Z" fill="white"/>
<path d="M353.221 425.406L354.239 424.148L353.691 423.676L353.221 425.406Z" fill="white"/>
<path d="M353.221 425.878C353.143 425.878 353.064 425.878 352.986 425.8C352.751 425.721 352.673 425.406 352.751 425.249L353.299 423.518C353.377 423.361 353.456 423.204 353.612 423.204C353.769 423.125 353.926 423.204 354.082 423.282L354.63 423.754C354.787 423.912 354.787 424.226 354.63 424.462L353.612 425.721C353.456 425.8 353.299 425.878 353.221 425.878Z" fill="white"/>
<path d="M367.237 443.421C367.785 448.613 367.316 453.884 365.828 458.84C365.828 458.84 373.737 454.986 377.73 449.715C377.73 449.715 379.688 438.308 376.321 432.722C376.242 432.722 372.014 440.275 367.237 443.421Z" fill="white"/>
<path d="M365.828 459.391C365.671 459.391 365.593 459.312 365.515 459.312C365.358 459.155 365.28 458.998 365.358 458.762C366.846 453.806 367.316 448.613 366.767 443.5C366.767 443.343 366.846 443.107 367.002 443.028C371.622 439.96 375.851 432.644 375.929 432.565C376.007 432.408 376.164 432.329 376.321 432.329C376.477 432.329 376.634 432.408 376.712 432.565C380.157 438.229 378.278 449.4 378.2 449.872C378.2 449.951 378.122 450.029 378.122 450.108C374.05 455.379 366.376 459.234 366.063 459.391C365.984 459.312 365.906 459.312 365.828 459.391ZM367.707 443.657C368.177 448.456 367.785 453.255 366.533 457.896C368.725 456.716 374.128 453.491 377.182 449.557C377.339 448.377 378.748 439.016 376.242 433.824C375.068 435.712 371.622 440.983 367.707 443.657Z" fill="white"/>
<path d="M351.811 449.951C351.811 449.951 347.74 450.58 346.878 449.951C346.878 449.951 346.095 457.975 346.878 461.043C346.957 461.043 350.793 454.278 351.811 449.951Z" fill="white"/>
<path d="M346.957 461.594C346.643 461.594 346.487 461.436 346.487 461.2C345.704 458.132 346.487 450.265 346.487 449.951C346.487 449.715 346.722 449.479 347.035 449.479C347.113 449.479 347.191 449.557 347.27 449.557C347.661 449.872 349.932 449.793 351.811 449.479C352.046 449.4 352.36 449.636 352.36 449.872C352.36 449.951 352.36 450.029 352.36 450.029C351.342 454.278 347.583 460.964 347.426 461.2C347.27 461.515 347.113 461.594 346.957 461.594ZM347.348 450.659C347.113 453.648 347.035 456.559 347.191 459.548C348.758 456.638 350.089 453.648 351.185 450.58C349.932 450.816 348.601 450.816 347.348 450.659Z" fill="white"/>
<path d="M342.728 450.265C340.849 452.783 338.656 454.986 336.229 456.952C336.229 456.952 340.536 459.706 343.981 460.492C343.981 460.492 343.511 451.76 344.294 450.265H342.728Z" fill="white"/>
<path d="M343.981 460.964C340.379 460.178 336.151 457.424 335.994 457.346C335.837 457.267 335.759 457.11 335.759 456.952C335.759 456.795 335.837 456.638 335.994 456.559C338.421 454.671 340.536 452.39 342.415 449.951C342.493 449.793 342.65 449.715 342.806 449.793H344.372C344.529 449.793 344.686 449.872 344.764 450.029C344.842 450.187 344.842 450.344 344.764 450.501C344.294 451.445 344.372 457.11 344.529 460.492C344.529 460.65 344.451 460.807 344.372 460.886C344.216 460.964 344.059 460.964 343.981 460.964ZM337.012 456.874C339.048 458.132 341.162 459.076 343.433 459.863C343.355 457.975 343.198 452.862 343.589 450.737H342.963C341.24 453.019 339.204 455.064 337.012 456.874Z" fill="white"/>
<path d="M364.732 461.594C362.069 468.359 356.118 473.709 356.118 473.709C373.502 467.572 376.477 454.199 376.477 454.199C373.267 457.975 364.732 461.594 364.732 461.594Z" fill="white"/>
<path d="M356.118 474.181C355.883 474.181 355.648 473.945 355.648 473.709C355.648 473.551 355.727 473.473 355.805 473.394C355.883 473.315 361.678 468.123 364.262 461.515C364.34 461.358 364.418 461.279 364.497 461.279C364.575 461.279 372.954 457.66 376.086 453.963C376.242 453.806 376.477 453.727 376.712 453.806C376.947 453.884 377.025 454.12 376.947 454.356C376.947 454.514 373.658 468.045 356.275 474.259C356.196 474.181 356.118 474.181 356.118 474.181ZM365.123 461.987C363.4 465.842 361.051 469.382 358.154 472.371C369.508 467.573 373.893 459.627 375.381 455.93C371.857 458.919 366.219 461.515 365.123 461.987Z" fill="white"/>
<path d="M347.661 463.482L347.27 464.347C347.583 467.573 349.775 474.889 349.775 474.889H350.95C357.136 471.978 361.756 462.616 361.756 462.616C356.118 464.583 347.661 463.482 347.661 463.482Z" fill="white"/>
<path d="M351.028 475.282H349.854C349.619 475.282 349.462 475.125 349.384 474.967C349.306 474.653 347.113 467.573 346.8 464.347C346.8 464.268 346.8 464.19 346.878 464.032L347.27 463.246C347.348 463.088 347.583 462.931 347.74 463.01C347.818 463.01 356.196 464.032 361.599 462.144C361.756 462.066 361.991 462.144 362.148 462.302C362.304 462.459 362.304 462.695 362.226 462.852C362.069 463.246 357.449 472.293 351.263 475.282C351.185 475.282 351.107 475.282 351.028 475.282ZM350.167 474.338H350.872C355.57 472.057 359.329 465.921 360.738 463.403C355.805 464.74 349.462 464.19 347.974 463.954L347.74 464.347C348.053 467.179 349.697 472.843 350.167 474.338Z" fill="white"/>
<path d="M336.151 473.237C339.596 474.574 343.276 475.203 347.035 475.046C346.173 472.293 345.39 469.539 344.764 466.786C344.764 466.786 339.048 471.978 336.151 473.237Z" fill="white"/>
<path d="M345.86 475.597C342.493 475.597 339.126 474.967 335.994 473.709C335.837 473.63 335.681 473.473 335.681 473.237C335.681 473.079 335.759 472.843 335.994 472.765C338.813 471.506 344.372 466.471 344.451 466.393C344.607 466.235 344.764 466.235 344.921 466.314C345.077 466.393 345.234 466.55 345.234 466.707C345.86 469.461 346.565 472.214 347.505 474.889C347.583 475.046 347.505 475.203 347.426 475.282C347.348 475.439 347.191 475.518 347.035 475.518C346.643 475.597 346.252 475.597 345.86 475.597ZM337.403 473.158C340.301 474.102 343.355 474.653 346.408 474.574C346.017 473.158 344.921 469.854 344.451 467.73C342.258 469.697 339.909 471.585 337.403 473.158Z" fill="white"/>
<path d="M334.35 471.663C335.524 471.034 342.885 466.865 344.294 464.111V462.538C344.294 462.538 337.873 460.807 334.428 458.368V458.29L334.35 458.368L334.271 458.29V458.368C330.826 460.886 324.405 462.538 324.405 462.538V464.111C325.814 466.943 333.097 471.034 334.35 471.663Z" fill="white"/>
<path d="M334.35 472.214C334.193 472.214 334.036 472.214 333.958 472.135C333.88 472.057 333.801 472.057 333.801 471.978C332 471.034 325.345 467.179 323.935 464.347C323.935 464.268 323.857 464.19 323.857 464.111V462.538C323.857 462.302 324.013 462.144 324.248 462.066C324.327 462.066 330.434 460.414 333.801 458.054C333.88 457.896 333.958 457.818 334.036 457.739C334.193 457.66 334.35 457.66 334.428 457.739C334.506 457.739 334.506 457.739 334.584 457.739C334.663 457.818 334.819 457.896 334.819 457.975C338.186 460.335 344.294 461.987 344.372 461.987C344.607 462.066 344.764 462.223 344.764 462.459V464.032C344.764 464.111 344.764 464.19 344.686 464.268C343.276 467.022 336.62 470.877 334.819 471.899C334.741 471.978 334.741 472.057 334.663 472.057C334.584 472.214 334.506 472.214 334.35 472.214ZM324.875 464.032C326.284 466.629 333.018 470.405 334.35 471.113C335.681 470.326 342.337 466.55 343.824 464.032V462.931C342.415 462.538 337.403 461.043 334.35 458.919C331.296 461.043 326.284 462.538 324.875 462.931V464.032Z" fill="white"/>
<path d="M405.816 429.566C405.816 427.462 406.299 425.574 407.264 423.903C408.25 422.233 409.575 420.933 411.239 420.005C412.923 419.056 414.762 418.581 416.754 418.581C419.034 418.581 421.057 419.149 422.824 420.283C424.611 421.397 425.905 422.986 426.706 425.048H422.485C421.93 423.914 421.16 423.068 420.174 422.511C419.188 421.954 418.048 421.676 416.754 421.676C415.337 421.676 414.074 421.995 412.964 422.635C411.855 423.274 410.982 424.192 410.345 425.389C409.729 426.585 409.421 427.978 409.421 429.566C409.421 431.154 409.729 432.547 410.345 433.743C410.982 434.939 411.855 435.868 412.964 436.528C414.074 437.167 415.337 437.487 416.754 437.487C418.048 437.487 419.188 437.209 420.174 436.652C421.16 436.095 421.93 435.249 422.485 434.114H426.706C425.905 436.177 424.611 437.766 422.824 438.879C421.057 439.993 419.034 440.55 416.754 440.55C414.741 440.55 412.903 440.086 411.239 439.158C409.575 438.209 408.25 436.899 407.264 435.228C406.299 433.557 405.816 431.67 405.816 429.566Z" fill="white"/>
<path d="M433.688 417.468V440.365H430.175V417.468H433.688Z" fill="white"/>
<path d="M445.021 440.643C443.419 440.643 441.971 440.282 440.677 439.56C439.383 438.818 438.366 437.786 437.627 436.466C436.887 435.125 436.518 433.578 436.518 431.825C436.518 430.092 436.897 428.555 437.658 427.214C438.418 425.873 439.455 424.842 440.769 424.12C442.084 423.398 443.553 423.037 445.175 423.037C446.798 423.037 448.267 423.398 449.581 424.12C450.896 424.842 451.933 425.873 452.693 427.214C453.453 428.555 453.833 430.092 453.833 431.825C453.833 433.557 453.443 435.094 452.662 436.435C451.882 437.776 450.814 438.818 449.458 439.56C448.123 440.282 446.644 440.643 445.021 440.643ZM445.021 437.58C445.925 437.58 446.767 437.363 447.548 436.93C448.349 436.497 448.996 435.847 449.489 434.981C449.982 434.114 450.228 433.062 450.228 431.825C450.228 430.587 449.992 429.545 449.52 428.7C449.047 427.833 448.421 427.183 447.64 426.75C446.86 426.317 446.018 426.1 445.114 426.1C444.21 426.1 443.368 426.317 442.587 426.75C441.827 427.183 441.221 427.833 440.769 428.7C440.318 429.545 440.092 430.587 440.092 431.825C440.092 433.661 440.554 435.084 441.478 436.095C442.423 437.085 443.604 437.58 445.021 437.58Z" fill="white"/>
<path d="M472.038 423.316V440.365H468.526V438.353C467.971 439.055 467.242 439.612 466.338 440.024C465.455 440.416 464.51 440.612 463.504 440.612C462.168 440.612 460.967 440.334 459.899 439.777C458.851 439.22 458.019 438.395 457.403 437.301C456.807 436.208 456.51 434.888 456.51 433.341V423.316H459.991V432.815C459.991 434.341 460.371 435.517 461.131 436.342C461.891 437.147 462.928 437.549 464.243 437.549C465.558 437.549 466.595 437.147 467.355 436.342C468.136 435.517 468.526 434.341 468.526 432.815V423.316H472.038Z" fill="white"/>
<path d="M474.86 431.763C474.86 430.051 475.209 428.534 475.908 427.214C476.626 425.894 477.592 424.873 478.804 424.151C480.036 423.408 481.402 423.037 482.902 423.037C484.011 423.037 485.099 423.285 486.168 423.78C487.256 424.254 488.119 424.894 488.756 425.698V417.468H492.299V440.365H488.756V437.796C488.181 438.622 487.379 439.302 486.352 439.839C485.346 440.375 484.185 440.643 482.871 440.643C481.392 440.643 480.036 440.272 478.804 439.529C477.592 438.766 476.626 437.714 475.908 436.373C475.209 435.012 474.86 433.475 474.86 431.763ZM488.756 431.825C488.756 430.649 488.509 429.628 488.016 428.761C487.544 427.895 486.917 427.235 486.137 426.781C485.356 426.327 484.514 426.1 483.61 426.1C482.706 426.1 481.864 426.327 481.084 426.781C480.303 427.214 479.666 427.864 479.173 428.73C478.701 429.576 478.465 430.587 478.465 431.763C478.465 432.939 478.701 433.97 479.173 434.857C479.666 435.744 480.303 436.425 481.084 436.899C481.885 437.353 482.727 437.58 483.61 437.58C484.514 437.58 485.356 437.353 486.137 436.899C486.917 436.445 487.544 435.785 488.016 434.919C488.509 434.032 488.756 433 488.756 431.825Z" fill="white"/>
<path d="M510.105 418.86V421.738H504.405V440.365H500.892V421.738H495.161V418.86H510.105Z" fill="white"/>
<path d="M528.579 431.422C528.579 432.062 528.538 432.639 528.456 433.155H515.485C515.587 434.517 516.091 435.61 516.995 436.435C517.898 437.26 519.008 437.673 520.322 437.673C522.212 437.673 523.547 436.879 524.328 435.29H528.117C527.604 436.858 526.669 438.147 525.313 439.158C523.978 440.148 522.315 440.643 520.322 440.643C518.699 440.643 517.241 440.282 515.947 439.56C514.673 438.818 513.667 437.786 512.927 436.466C512.209 435.125 511.849 433.578 511.849 431.825C511.849 430.071 512.198 428.534 512.897 427.214C513.616 425.873 514.612 424.842 515.885 424.12C517.179 423.398 518.658 423.037 520.322 423.037C521.924 423.037 523.352 423.388 524.605 424.089C525.858 424.79 526.833 425.781 527.532 427.06C528.23 428.318 528.579 429.772 528.579 431.422ZM524.913 430.308C524.892 429.009 524.43 427.967 523.526 427.183C522.623 426.399 521.503 426.008 520.168 426.008C518.956 426.008 517.919 426.399 517.056 427.183C516.193 427.947 515.68 428.988 515.516 430.308H524.913Z" fill="white"/>
<path d="M530.223 431.825C530.223 430.071 530.573 428.534 531.271 427.214C531.99 425.873 532.976 424.842 534.229 424.12C535.482 423.398 536.92 423.037 538.542 423.037C540.596 423.037 542.291 423.532 543.626 424.522C544.982 425.492 545.896 426.884 546.368 428.7H542.579C542.27 427.854 541.777 427.194 541.1 426.719C540.422 426.245 539.569 426.008 538.542 426.008C537.104 426.008 535.954 426.523 535.091 427.555C534.249 428.565 533.828 429.989 533.828 431.825C533.828 433.661 534.249 435.094 535.091 436.126C535.954 437.157 537.104 437.673 538.542 437.673C540.576 437.673 541.921 436.775 542.579 434.981H546.368C545.875 436.714 544.951 438.096 543.595 439.127C542.24 440.138 540.555 440.643 538.542 440.643C536.92 440.643 535.482 440.282 534.229 439.56C532.976 438.818 531.99 437.786 531.271 436.466C530.573 435.125 530.223 433.578 530.223 431.825Z" fill="white"/>
<path d="M558.008 423.037C559.302 423.037 560.452 423.316 561.459 423.873C562.486 424.429 563.287 425.255 563.862 426.348C564.458 427.441 564.755 428.761 564.755 430.308V440.365H561.274V430.835C561.274 429.308 560.894 428.143 560.134 427.338C559.374 426.513 558.337 426.1 557.022 426.1C555.707 426.1 554.66 426.513 553.879 427.338C553.119 428.143 552.739 429.308 552.739 430.835V440.365H549.227V417.468H552.739V425.296C553.335 424.574 554.085 424.017 554.988 423.625C555.913 423.233 556.919 423.037 558.008 423.037Z" fill="white"/>
<path d="M588.515 416.346L582.483 427.972L589 440.365H584.459L578.255 427.972L584.043 416.346H588.515ZM573.229 416.346L579.017 427.972L572.813 440.365H568.272L574.788 427.972L568.757 416.346H573.229ZM580.889 426.51V429.4H576.175V426.51H580.889Z" fill="white"/>
</svg>
