<svg width="761" height="777" viewBox="0 0 761 777" fill="none" xmlns="http://www.w3.org/2000/svg">
<path d="M1.14105 465.613L373.473 2L574.037 545.048L1.14105 465.613Z" fill="#FB4A1E" stroke="#FB4A1E"/>
<path d="M224.596 389.463C224.596 384.829 228.556 380.937 233.267 380.937C235.69 380.937 237.9 381.967 239.488 383.604L237.349 385.598C236.341 384.423 234.854 383.676 233.267 383.676C230.215 383.676 227.648 386.316 227.648 389.463C227.648 392.609 230.215 395.271 233.267 395.271C234.877 395.271 236.341 394.525 237.371 393.35L239.482 395.321C237.895 396.975 235.69 398.011 233.262 398.011C228.556 398.011 224.591 394.096 224.591 389.463H224.596Z" fill="white"/>
<path d="M255.426 394.987V397.727H243.971V381.231H246.95V394.992H255.426V394.987Z" fill="white"/>
<path d="M257.214 389.463C257.214 384.829 261.173 380.937 265.885 380.937C270.596 380.937 274.528 384.824 274.528 389.463C274.528 394.101 270.568 398.011 265.885 398.011C261.201 398.011 257.214 394.096 257.214 389.463ZM271.454 389.463C271.454 386.316 268.909 383.676 265.885 383.676C262.861 383.676 260.266 386.316 260.266 389.463C260.266 392.609 262.833 395.271 265.885 395.271C268.936 395.271 271.454 392.631 271.454 389.463Z" fill="white"/>
<path d="M278.22 390.688V381.227H281.221V390.593C281.221 393.333 282.998 395.299 285.498 395.299C287.999 395.299 289.797 393.328 289.797 390.593V381.227H292.777V390.688C292.777 394.987 289.775 398.011 285.504 398.011C281.233 398.011 278.231 394.987 278.231 390.688H278.22Z" fill="white"/>
<path d="M297.493 381.231H303.302C308.753 381.231 312.596 384.64 312.596 389.468C312.596 394.296 308.753 397.727 303.302 397.727H297.493V381.231ZM303.613 395.014C307.094 395.014 309.544 392.709 309.544 389.468C309.544 386.227 307.094 383.944 303.613 383.944H300.495V395.014H303.613Z" fill="white"/>
<path d="M319.909 383.966H314.624V381.231H328.168V383.966H322.883V397.727H319.903V383.966H319.909Z" fill="white"/>
<path d="M334.895 383.966V387.953H343.421V390.693H334.895V394.992H344.307V397.732H331.894V381.237H344.307V383.972H334.895V383.966Z" fill="white"/>
<path d="M347.885 389.463C347.885 384.829 351.845 380.937 356.556 380.937C358.979 380.937 361.19 381.967 362.777 383.604L360.638 385.598C359.63 384.423 358.143 383.676 356.556 383.676C353.504 383.676 350.937 386.316 350.937 389.463C350.937 392.609 353.504 395.271 356.556 395.271C358.166 395.271 359.63 394.525 360.661 393.35L362.771 395.321C361.184 396.975 358.979 398.011 356.551 398.011C351.845 398.011 347.88 394.096 347.88 389.463H347.885Z" fill="white"/>
<path d="M381.284 381.231V397.727H378.282V390.693H370.046V397.727H367.044V381.231H370.046V387.953H378.282V381.231H381.284Z" fill="white"/>
<path d="M405.786 388.65H412.82V395.327C411.233 396.981 408.665 398.017 406.265 398.017C401.537 398.017 397.55 394.102 397.55 389.468C397.55 384.835 401.537 380.942 406.265 380.942C408.665 380.942 411.238 381.95 412.82 383.61L410.681 385.604C409.651 384.401 407.869 383.682 406.265 383.682C403.191 383.682 400.596 386.322 400.596 389.468C400.596 392.615 403.191 395.277 406.265 395.277C407.513 395.277 408.86 394.842 409.89 394.102V391.1H405.786V388.65Z" fill="white"/>
<path d="M427.689 397.727L423.802 392.18H420.605V397.727H417.604V381.231H424.782C428.312 381.231 430.952 383.487 430.952 386.706C430.952 389.201 429.343 391.122 426.965 391.868L431.097 397.727H427.689ZM420.605 389.418H424.448C426.491 389.418 427.906 388.387 427.906 386.706C427.906 385.024 426.491 383.994 424.448 383.994H420.605V389.418Z" fill="white"/>
<path d="M434.743 389.463C434.743 384.829 438.703 380.937 443.414 380.937C448.125 380.937 452.057 384.824 452.057 389.463C452.057 394.101 448.097 398.011 443.414 398.011C438.731 398.011 434.743 394.096 434.743 389.463ZM448.983 389.463C448.983 386.316 446.438 383.676 443.414 383.676C440.39 383.676 437.795 386.316 437.795 389.463C437.795 392.609 440.362 395.271 443.414 395.271C446.466 395.271 448.983 392.631 448.983 389.463Z" fill="white"/>
<path d="M456.185 390.688V381.227H459.186V390.593C459.186 393.333 460.963 395.299 463.463 395.299C465.964 395.299 467.762 393.328 467.762 390.593V381.227H470.742V390.688C470.742 394.987 467.74 398.011 463.469 398.011C459.197 398.011 456.196 394.987 456.196 390.688H456.185Z" fill="white"/>
<path d="M475.296 381.231H482.474C486.005 381.231 488.645 383.487 488.645 386.706C488.645 389.925 486.005 392.18 482.474 392.18H478.298V397.727H475.296V381.231ZM482.14 389.418C484.184 389.418 485.598 388.387 485.598 386.706C485.598 385.024 484.184 383.994 482.14 383.994H478.298V389.418H482.14Z" fill="white"/>
<path d="M118.507 360.729L113.629 363.491L120.629 367.717C120.178 365.284 119.46 362.945 118.507 360.729Z" fill="white"/>
<path d="M144.91 368.509L149.56 365.763C150.395 362.867 150.852 359.816 150.852 356.658C150.852 352.131 149.933 347.82 148.274 343.889L144.743 345.888C144.336 349.842 143.256 353.595 141.63 357.037C143.351 360.568 144.492 364.432 144.916 368.509H144.91Z" fill="white"/>
<path d="M126.288 371.131C126.388 371.075 126.488 371.014 126.589 370.958C125.469 366.698 123.515 362.772 120.908 359.369L119.917 359.926C121.142 362.716 122.005 365.695 122.451 368.814L126.288 371.131Z" fill="white"/>
<path d="M142.977 346.884L137.186 350.158C138.489 351.734 139.653 353.438 140.661 355.232C141.785 352.609 142.565 349.807 142.972 346.884H142.977Z" fill="white"/>
<path d="M151.536 364.593L157.551 361.04C157.551 361.04 157.607 361.018 157.634 361.007C157.651 361.001 157.668 360.99 157.685 360.984C157.718 360.973 157.751 360.962 157.79 360.951C157.835 360.94 157.879 360.934 157.93 360.934C157.941 360.934 157.952 360.934 157.963 360.934C157.974 360.934 157.985 360.934 157.996 360.934C158.041 360.934 158.091 360.94 158.136 360.951C158.169 360.957 158.208 360.973 158.241 360.984C158.258 360.99 158.275 360.996 158.292 361.007C158.319 361.018 158.347 361.029 158.375 361.04L182.617 375.369L202.364 363.29L157.818 338.48L149.671 343.092C151.459 347.257 152.455 351.846 152.455 356.657C152.455 359.386 152.127 362.042 151.525 364.593H151.536Z" fill="white"/>
<path d="M143.362 369.422C143.061 365.696 142.137 362.149 140.689 358.874C137.793 364.153 133.555 368.597 128.438 371.749C128.493 372.011 128.554 372.267 128.61 372.529L133.305 375.364L143.362 369.422Z" fill="white"/>
<path d="M139.814 357.054C138.683 354.871 137.324 352.833 135.754 350.973L122.333 358.569C124.906 361.977 126.855 365.875 128.024 370.096C133.036 366.905 137.13 362.394 139.814 357.054Z" fill="white"/>
<path d="M113.006 390.806V395.417C114.181 394.075 115.256 392.643 116.202 391.123C115.122 391.067 114.058 390.956 113.006 390.806Z" fill="white"/>
<path d="M120.947 369.801L113.006 365.006V375.119C115.846 374.896 118.591 374.311 121.187 373.409C121.175 372.19 121.092 370.987 120.953 369.801H120.947Z" fill="white"/>
<path d="M121.153 375.13C118.558 375.982 115.829 376.533 113 376.745V389.175C114.353 389.381 115.734 389.492 117.138 389.525C119.504 385.221 120.93 380.326 121.153 375.13Z" fill="white"/>
<path d="M126.354 388.456C127.195 385.549 127.658 382.481 127.658 379.306C127.658 377.341 127.474 375.414 127.14 373.543L126.226 372.991C125.113 373.57 123.96 374.088 122.779 374.545C122.657 379.93 121.292 385.014 118.959 389.52C121.504 389.442 123.977 389.08 126.343 388.456H126.354Z" fill="white"/>
<path d="M122.679 370.847C122.734 371.499 122.768 372.15 122.785 372.808C123.397 372.557 124.01 372.295 124.606 372.006L122.679 370.842V370.847Z" fill="white"/>
<path d="M132.485 396.631V387.949C130.931 388.673 129.316 389.28 127.651 389.77C125.919 395.194 122.879 400.045 118.902 403.938C124.02 402.601 128.653 400.056 132.485 396.631Z" fill="white"/>
<path d="M132.486 376.767L128.949 374.634C129.156 376.165 129.272 377.719 129.272 379.306C129.272 382.274 128.894 385.159 128.187 387.904C129.668 387.42 131.099 386.835 132.48 386.15V376.761L132.486 376.767Z" fill="white"/>
<path d="M132.887 404.867C132.853 404.851 132.825 404.828 132.797 404.806C132.786 404.795 132.775 404.79 132.764 404.778C132.731 404.751 132.703 404.717 132.675 404.684C132.675 404.678 132.664 404.673 132.658 404.667C132.552 404.533 132.486 404.361 132.486 404.177V398.77C127.964 402.49 122.478 405.079 116.469 406.115C115.367 407.006 114.208 407.836 113 408.588V415.432L157.145 440.481L157.156 418.456L132.903 404.884C132.903 404.884 132.892 404.873 132.881 404.867H132.887Z" fill="white"/>
<path d="M125.781 390.26C123.303 390.839 120.719 391.151 118.068 391.162C116.648 393.573 114.949 395.801 113.006 397.794V404.906C113.941 404.839 114.866 404.739 115.779 404.594C120.29 400.841 123.782 395.901 125.781 390.265V390.26Z" fill="white"/>
<path d="M134.117 395.078C137.865 391.241 140.683 386.49 142.209 381.194C139.825 383.55 137.102 385.555 134.117 387.142V395.078Z" fill="white"/>
<path d="M143.49 372.117C143.49 371.827 143.473 371.538 143.467 371.248L134.117 376.772V385.293C137.47 383.394 140.46 380.927 142.949 378.014C143.3 376.099 143.49 374.127 143.49 372.117Z" fill="white"/>
<path d="M157.167 363.151L150.946 366.827C149.582 371.237 147.354 375.275 144.464 378.739C143.044 386.012 139.335 392.472 134.117 397.339V402.769L157.167 389.308V363.151Z" fill="white"/>
<path d="M148.808 368.096L145.061 370.312C145.094 370.914 145.111 371.515 145.111 372.122C145.111 373.241 145.055 374.355 144.949 375.447C146.531 373.186 147.834 370.719 148.814 368.096H148.808Z" fill="white"/>
<path d="M183.419 376.767V404.172C183.419 404.355 183.352 404.528 183.246 404.662C183.246 404.667 183.235 404.673 183.23 404.678C183.202 404.712 183.174 404.74 183.141 404.773C183.129 404.784 183.118 404.79 183.107 404.801C183.079 404.823 183.046 404.846 183.018 404.862C183.012 404.862 183.007 404.873 182.996 404.879L158.743 418.45L158.754 440.475L202.899 415.426V364.833L183.413 376.767H183.419Z" fill="white"/>
<path d="M181.826 402.763V376.773L158.776 363.146V389.303L181.826 402.763Z" fill="white"/>
<path d="M157.969 390.706L134.931 404.155L157.969 417.047L181.002 404.155L157.969 390.706Z" fill="white"/>
</svg>
