<svg width="655" height="570" viewBox="0 0 655 570" fill="none" xmlns="http://www.w3.org/2000/svg">
<path d="M1.03737 77.5153L590.709 0.99707L359.248 531.612L1.03737 77.5153Z" fill="#FB4A1E" stroke="#FB4A1E"/>
<path d="M258.492 177.169C257.274 176.208 255.168 175.728 252.122 175.728H243.923C243.591 175.728 243.332 175.968 243.332 176.282V185.948C243.332 186.263 243.591 186.503 243.904 186.503H252.14C255.113 186.503 257.218 186.004 258.455 185.006C259.674 184.008 260.283 182.659 260.302 180.958C260.302 179.387 259.693 178.112 258.492 177.169Z" fill="white"/>
<path d="M248.428 131.517C224.645 130.667 204 149.482 204.019 174.6C204.019 197.556 222.059 216.778 245.769 217.461C269.885 218.164 289.81 198.905 289.921 174.637C290.05 152.014 272.304 132.367 248.428 131.517ZM268.574 188C267.54 189.7 266.118 190.994 264.309 191.992C263.201 192.602 261.502 193.046 259.249 193.36C256.59 193.73 256.036 193.859 255.501 193.896C255.279 193.896 255.094 194.099 255.094 194.321V199.663C255.094 199.884 254.91 200.069 254.67 200.069H248.798C248.558 200.069 248.373 199.884 248.373 199.663V194.358C248.373 194.118 248.17 193.933 247.93 193.933H243.701C243.461 193.933 243.258 194.118 243.258 194.358V199.663C243.258 199.884 243.073 200.069 242.833 200.069H236.924C236.684 200.069 236.5 199.884 236.5 199.663V194.358C236.5 194.118 236.296 193.933 236.056 193.933H227.414C227.174 193.933 226.99 193.748 226.99 193.526V187.982C226.99 187.76 227.174 187.593 227.414 187.575L232.4 187.482C233.471 187.482 234.321 186.632 234.321 185.634V162.106C234.339 160.738 233.176 159.629 231.735 159.629H227.433C227.193 159.629 227.008 159.444 227.008 159.222V153.419C227.008 153.197 227.193 153.012 227.433 153.012H236.056C236.296 153.012 236.5 152.827 236.5 152.606V146.913C236.518 146.691 236.721 146.506 236.943 146.506H242.833C243.073 146.506 243.258 146.691 243.258 146.913V152.587C243.258 152.827 243.461 153.012 243.701 153.012H247.727C247.967 153.012 248.17 152.827 248.17 152.587V146.913C248.17 146.691 248.354 146.506 248.595 146.506H254.651C254.891 146.506 255.076 146.691 255.076 146.913V152.587C255.076 152.827 255.279 153.012 255.519 153.012H255.852C260.006 153.012 262.536 153.992 264.752 155.951C266.968 157.91 268.076 160.331 268.076 163.215C268.076 165.636 267.282 167.706 265.694 169.443C264.807 170.405 263.57 171.218 261.982 171.828C261.687 171.939 261.724 172.327 262.019 172.419C264.623 173.158 266.58 174.286 267.873 175.82C269.331 177.539 270.052 179.701 270.052 182.307C270.052 184.433 269.535 186.337 268.482 188.018L268.574 188Z" fill="white"/>
<path d="M243.923 169.037H250.367C252.897 169.037 254.651 168.63 255.63 167.817C256.627 166.985 257.107 165.802 257.107 164.231C257.107 162.789 256.609 161.643 255.63 160.83C254.651 160.017 252.916 159.61 250.478 159.61H243.923C243.591 159.61 243.332 159.851 243.332 160.165V168.482C243.332 168.796 243.591 169.037 243.904 169.037H243.923Z" fill="white"/>
<path d="M266.285 198.147L289.939 173.066V217.48H245.566L266.285 198.147Z" fill="white"/>
<path d="M227.654 150.813L204 175.894V131.48H248.373L227.654 150.813Z" fill="white"/>
<path d="M330.614 182.733C330.614 181.92 330.891 181.236 331.464 180.681C332.036 180.127 332.719 179.85 333.532 179.85C334.344 179.85 335.028 180.127 335.6 180.681C336.172 181.236 336.449 181.92 336.449 182.733C336.449 183.546 336.172 184.267 335.6 184.821C335.028 185.376 334.344 185.653 333.532 185.653C332.719 185.653 332.036 185.376 331.464 184.821C330.891 184.267 330.614 183.565 330.614 182.733Z" fill="white"/>
<path d="M335.95 187.742H331.112V204.118H335.95V187.742Z" fill="white"/>
<path d="M394.782 182.733C394.782 181.92 395.059 181.236 395.632 180.681C396.204 180.127 396.887 179.85 397.7 179.85C398.512 179.85 399.196 180.127 399.768 180.681C400.34 181.236 400.617 181.92 400.617 182.733C400.617 183.546 400.34 184.267 399.768 184.821C399.196 185.376 398.512 185.653 397.7 185.653C396.887 185.653 396.204 185.376 395.632 184.821C395.059 184.267 394.782 183.565 394.782 182.733ZM400.119 187.76V204.136H395.281V187.76H400.119Z" fill="white"/>
<path d="M422.185 192.214V204.006H417.125V193.286C417.125 191.567 416.719 190.384 415.925 189.775C415.131 189.146 414.245 188.85 413.266 188.85C412.14 188.85 411.124 189.202 410.219 189.904C409.314 190.606 408.871 191.771 408.871 193.434V204.043H403.812V184.858H408.613L408.76 186.762C409.296 186.023 410.071 185.413 411.087 184.969C412.103 184.525 413.192 184.285 414.374 184.285C416.867 184.285 418.806 184.969 420.154 186.355C421.502 187.741 422.185 189.701 422.185 192.251V192.214Z" fill="white"/>
<path d="M327.752 197.334C327.752 198.425 327.549 199.423 327.124 200.291C326.699 201.16 326.127 201.899 325.388 202.509C324.649 203.101 323.745 203.563 322.674 203.877C321.603 204.191 320.402 204.358 319.091 204.358H308.049V177.576H319.054C320.365 177.576 321.547 177.761 322.581 178.112C323.615 178.463 324.502 178.962 325.222 179.591C325.942 180.219 326.496 180.995 326.884 181.901C327.272 182.807 327.475 183.786 327.475 184.858C327.475 186.355 327.142 187.612 326.478 188.647C325.813 189.682 324.926 190.477 323.818 191.013C324.982 191.568 325.942 192.381 326.662 193.453C327.382 194.525 327.752 195.819 327.752 197.353V197.334ZM312.979 181.864V189.146H318.574C319.848 189.146 320.809 188.795 321.492 188.111C322.175 187.427 322.507 186.559 322.507 185.542C322.489 184.526 322.138 183.657 321.473 182.936C320.809 182.215 319.83 181.864 318.574 181.864H312.979ZM322.858 196.521C322.858 195.43 322.489 194.543 321.769 193.878C321.03 193.213 320.088 192.88 318.925 192.88H312.998V200.088H318.925C320.125 200.088 321.067 199.774 321.787 199.127C322.507 198.48 322.858 197.611 322.858 196.521Z" fill="white"/>
<path d="M350.927 189.775H347.418V204.117H342.691V189.775H339.146V185.783H342.691V180.09H347.418V185.783H350.927V189.775Z" fill="white"/>
<path d="M362.763 184.156C364.96 184.156 366.844 184.692 368.413 185.764C369.983 186.836 371.017 188.259 371.552 190.015L367.287 191.734C366.991 190.792 366.437 190.034 365.625 189.461C364.831 188.888 363.889 188.611 362.836 188.611C361.322 188.611 360.122 189.11 359.273 190.126C358.423 191.143 357.998 192.492 357.998 194.174C357.998 195.856 358.442 197.223 359.31 198.203C360.177 199.164 361.359 199.663 362.836 199.663C363.907 199.663 364.831 199.386 365.643 198.85C366.456 198.295 367.028 197.575 367.361 196.669L371.552 198.222C370.943 200.051 369.835 201.475 368.247 202.547C366.659 203.619 364.812 204.136 362.726 204.136C361.285 204.136 359.956 203.896 358.774 203.415C357.574 202.935 356.558 202.269 355.709 201.401C354.859 200.532 354.195 199.497 353.733 198.259C353.271 197.02 353.031 195.671 353.031 194.211C353.031 192.751 353.271 191.346 353.733 190.145C354.195 188.925 354.859 187.871 355.709 186.984C356.558 186.097 357.592 185.413 358.793 184.933C359.993 184.452 361.322 184.212 362.763 184.212V184.156Z" fill="white"/>
<path d="M382.521 184.156C383.998 184.156 385.327 184.397 386.546 184.896C387.746 185.395 388.78 186.078 389.648 186.966C390.516 187.834 391.181 188.888 391.661 190.108C392.141 191.328 392.381 192.658 392.381 194.118C392.381 195.579 392.141 196.909 391.661 198.129C391.181 199.349 390.498 200.403 389.648 201.271C388.78 202.14 387.746 202.842 386.546 203.323C385.346 203.822 383.998 204.062 382.521 204.062C381.043 204.062 379.695 203.822 378.477 203.323C377.258 202.824 376.205 202.14 375.356 201.271C374.488 200.384 373.823 199.349 373.343 198.129C372.863 196.909 372.623 195.579 372.623 194.118C372.623 192.658 372.863 191.328 373.343 190.108C373.823 188.888 374.507 187.834 375.356 186.966C376.224 186.078 377.258 185.395 378.477 184.896C379.695 184.397 381.043 184.156 382.521 184.156ZM382.502 199.608C383.961 199.608 385.143 199.09 386.048 198.074C386.952 197.057 387.414 195.726 387.414 194.1C387.414 192.473 386.952 191.143 386.048 190.126C385.143 189.11 383.961 188.592 382.502 188.592C381.043 188.592 379.843 189.11 378.938 190.126C378.052 191.143 377.59 192.473 377.59 194.1C377.59 195.726 378.033 197.057 378.938 198.074C379.843 199.09 381.025 199.608 382.502 199.608Z" fill="white"/>
<path d="M330.152 155.397V170.184H326.035L325.794 167.504C325.019 168.557 323.948 169.315 322.563 169.814C321.178 170.313 319.719 170.572 318.15 170.572C316.377 170.59 314.752 170.276 313.275 169.629C311.798 168.982 310.523 168.058 309.452 166.894C308.4 165.711 307.587 164.325 307.015 162.717C306.443 161.109 306.166 159.371 306.202 157.486C306.202 155.527 306.498 153.734 307.107 152.108C307.717 150.481 308.566 149.076 309.674 147.894C310.782 146.711 312.111 145.786 313.663 145.121C315.214 144.456 316.949 144.123 318.851 144.123C321.566 144.123 323.911 144.77 325.887 146.045C327.881 147.321 329.248 149.039 329.968 151.165L325.684 152.902C325.13 151.442 324.243 150.352 323.043 149.668C321.843 148.966 320.458 148.614 318.888 148.614C317.688 148.614 316.599 148.836 315.638 149.261C314.678 149.686 313.847 150.296 313.164 151.073C312.481 151.849 311.964 152.791 311.594 153.9C311.225 155.009 311.059 156.229 311.059 157.578C311.059 158.928 311.244 160.129 311.594 161.201C311.945 162.273 312.462 163.16 313.127 163.881C313.792 164.602 314.586 165.156 315.528 165.544C316.469 165.933 317.503 166.117 318.648 166.117C320.366 166.117 321.898 165.692 323.246 164.861C324.631 163.973 325.444 162.55 325.684 160.61V159.556H318.224V155.379H330.134L330.152 155.397Z" fill="white"/>
<path d="M344.463 150.795C345.165 150.795 345.922 150.887 346.735 151.072V155.785C346.033 155.6 345.294 155.508 344.537 155.508C342.894 155.508 341.62 156.026 340.715 157.042C339.81 158.059 339.367 159.5 339.367 161.33V170.571H334.215V151.349H338.924L339.201 153.346C339.625 152.514 340.308 151.867 341.269 151.442C342.229 151.017 343.281 150.795 344.463 150.795Z" fill="white"/>
<path d="M366.363 162.679H352.662C352.809 163.955 353.308 164.897 354.176 165.544C355.044 166.173 356.078 166.505 357.278 166.505C359.328 166.505 360.805 165.637 361.673 163.899L365.625 165.47C364.96 167.078 363.889 168.335 362.375 169.222C360.861 170.109 359.162 170.553 357.26 170.553C355.912 170.553 354.675 170.313 353.567 169.851C352.459 169.389 351.48 168.742 350.667 167.91C349.855 167.078 349.246 166.08 348.802 164.879C348.359 163.696 348.138 162.384 348.138 160.979C348.138 159.574 348.359 158.225 348.802 157.061C349.246 155.896 349.855 154.88 350.667 154.011C351.48 153.161 352.44 152.495 353.585 152.033C354.73 151.571 355.967 151.331 357.334 151.331C358.7 151.331 359.9 151.553 361.008 152.015C362.116 152.477 363.058 153.124 363.852 153.956C364.627 154.806 365.237 155.822 365.68 157.005C366.123 158.188 366.345 159.519 366.345 160.979V162.661L366.363 162.679ZM361.488 159.371C361.396 158.022 360.971 157.005 360.251 156.321C359.513 155.638 358.534 155.286 357.278 155.286C356.023 155.286 355.025 155.638 354.231 156.34C353.456 157.042 352.957 158.04 352.736 159.371H361.488Z" fill="white"/>
<path d="M386.602 162.679H372.919C373.066 163.955 373.565 164.897 374.433 165.544C375.301 166.173 376.335 166.487 377.517 166.487C379.566 166.487 381.025 165.618 381.911 163.881L385.863 165.452C385.198 167.06 384.127 168.317 382.632 169.204C381.136 170.091 379.437 170.535 377.535 170.535C376.187 170.535 374.968 170.294 373.842 169.832C372.716 169.37 371.755 168.723 370.943 167.892C370.13 167.06 369.521 166.062 369.078 164.879C368.635 163.696 368.413 162.402 368.413 160.979C368.413 159.556 368.635 158.225 369.078 157.061C369.521 155.896 370.13 154.88 370.943 154.03C371.755 153.179 372.716 152.514 373.86 152.052C374.987 151.59 376.243 151.35 377.609 151.35C378.975 151.35 380.176 151.571 381.284 152.033C382.392 152.496 383.333 153.124 384.127 153.974C384.903 154.824 385.512 155.822 385.955 157.005C386.399 158.188 386.62 159.519 386.62 160.979V162.661L386.602 162.679ZM381.745 159.39C381.653 158.04 381.228 157.042 380.508 156.358C379.769 155.675 378.791 155.342 377.554 155.342C376.316 155.342 375.301 155.693 374.525 156.377C373.75 157.079 373.251 158.077 373.029 159.39H381.764H381.745Z" fill="white"/>
<path d="M408.391 158.761V170.553H403.331V159.833C403.331 158.114 402.925 156.931 402.131 156.321C401.337 155.693 400.451 155.397 399.472 155.397C398.346 155.397 397.33 155.748 396.425 156.451C395.52 157.153 395.077 158.317 395.077 159.981V170.59H390.018V151.368H394.819L394.966 153.272C395.502 152.532 396.277 151.922 397.293 151.479C398.309 151.035 399.398 150.795 400.58 150.795C403.073 150.795 405.012 151.479 406.36 152.865C407.708 154.251 408.391 156.21 408.391 158.761Z" fill="white"/>
<path d="M258.492 177.169C257.274 176.208 255.168 175.728 252.122 175.728H243.923C243.591 175.728 243.332 175.968 243.332 176.282V185.948C243.332 186.263 243.591 186.503 243.904 186.503H252.14C255.113 186.503 257.218 186.004 258.455 185.006C259.674 184.008 260.283 182.659 260.302 180.958C260.302 179.387 259.693 178.112 258.492 177.169Z" fill="white"/>
<path d="M248.428 131.517C224.645 130.667 204 149.482 204.019 174.6C204.019 197.556 222.059 216.778 245.769 217.461C269.885 218.164 289.81 198.905 289.921 174.637C290.05 152.014 272.304 132.367 248.428 131.517ZM268.574 188C267.54 189.7 266.118 190.994 264.309 191.992C263.201 192.602 261.502 193.046 259.249 193.36C256.59 193.73 256.036 193.859 255.501 193.896C255.279 193.896 255.094 194.099 255.094 194.321V199.663C255.094 199.884 254.91 200.069 254.67 200.069H248.798C248.558 200.069 248.373 199.884 248.373 199.663V194.358C248.373 194.118 248.17 193.933 247.93 193.933H243.701C243.461 193.933 243.258 194.118 243.258 194.358V199.663C243.258 199.884 243.073 200.069 242.833 200.069H236.924C236.684 200.069 236.5 199.884 236.5 199.663V194.358C236.5 194.118 236.296 193.933 236.056 193.933H227.414C227.174 193.933 226.99 193.748 226.99 193.526V187.982C226.99 187.76 227.174 187.593 227.414 187.575L232.4 187.482C233.471 187.482 234.321 186.632 234.321 185.634V162.106C234.339 160.738 233.176 159.629 231.735 159.629H227.433C227.193 159.629 227.008 159.444 227.008 159.222V153.419C227.008 153.197 227.193 153.012 227.433 153.012H236.056C236.296 153.012 236.5 152.827 236.5 152.606V146.913C236.518 146.691 236.721 146.506 236.943 146.506H242.833C243.073 146.506 243.258 146.691 243.258 146.913V152.587C243.258 152.827 243.461 153.012 243.701 153.012H247.727C247.967 153.012 248.17 152.827 248.17 152.587V146.913C248.17 146.691 248.354 146.506 248.595 146.506H254.651C254.891 146.506 255.076 146.691 255.076 146.913V152.587C255.076 152.827 255.279 153.012 255.519 153.012H255.852C260.006 153.012 262.536 153.992 264.752 155.951C266.968 157.91 268.076 160.331 268.076 163.215C268.076 165.636 267.282 167.706 265.694 169.443C264.807 170.405 263.57 171.218 261.982 171.828C261.687 171.939 261.724 172.327 262.019 172.419C264.623 173.158 266.58 174.286 267.873 175.82C269.331 177.539 270.052 179.701 270.052 182.307C270.052 184.433 269.535 186.337 268.482 188.018L268.574 188Z" fill="white"/>
<path d="M243.923 169.037H250.367C252.897 169.037 254.651 168.63 255.63 167.817C256.627 166.985 257.107 165.802 257.107 164.231C257.107 162.789 256.609 161.643 255.63 160.83C254.651 160.017 252.916 159.61 250.478 159.61H243.923C243.591 159.61 243.332 159.851 243.332 160.165V168.482C243.332 168.796 243.591 169.037 243.904 169.037H243.923Z" fill="white"/>
<path d="M266.285 198.147L289.939 173.066V217.48H245.566L266.285 198.147Z" fill="white"/>
<path d="M227.654 150.813L204 175.894V131.48H248.373L227.654 150.813Z" fill="white"/>
<path d="M330.614 182.733C330.614 181.92 330.891 181.236 331.464 180.681C332.036 180.127 332.719 179.85 333.532 179.85C334.344 179.85 335.028 180.127 335.6 180.681C336.172 181.236 336.449 181.92 336.449 182.733C336.449 183.546 336.172 184.267 335.6 184.821C335.028 185.376 334.344 185.653 333.532 185.653C332.719 185.653 332.036 185.376 331.464 184.821C330.891 184.267 330.614 183.565 330.614 182.733Z" fill="white"/>
<path d="M335.95 187.742H331.112V204.118H335.95V187.742Z" fill="white"/>
<path d="M394.782 182.733C394.782 181.92 395.059 181.236 395.632 180.681C396.204 180.127 396.887 179.85 397.7 179.85C398.512 179.85 399.196 180.127 399.768 180.681C400.34 181.236 400.617 181.92 400.617 182.733C400.617 183.546 400.34 184.267 399.768 184.821C399.196 185.376 398.512 185.653 397.7 185.653C396.887 185.653 396.204 185.376 395.632 184.821C395.059 184.267 394.782 183.565 394.782 182.733ZM400.119 187.76V204.136H395.281V187.76H400.119Z" fill="white"/>
<path d="M422.185 192.214V204.006H417.125V193.286C417.125 191.567 416.719 190.384 415.925 189.775C415.131 189.146 414.245 188.85 413.266 188.85C412.14 188.85 411.124 189.202 410.219 189.904C409.314 190.606 408.871 191.771 408.871 193.434V204.043H403.812V184.858H408.613L408.76 186.762C409.296 186.023 410.071 185.413 411.087 184.969C412.103 184.525 413.192 184.285 414.374 184.285C416.867 184.285 418.806 184.969 420.154 186.355C421.502 187.741 422.185 189.701 422.185 192.251V192.214Z" fill="white"/>
<path d="M327.752 197.334C327.752 198.425 327.549 199.423 327.124 200.291C326.699 201.16 326.127 201.899 325.388 202.509C324.649 203.101 323.745 203.563 322.674 203.877C321.603 204.191 320.402 204.358 319.091 204.358H308.049V177.576H319.054C320.365 177.576 321.547 177.761 322.581 178.112C323.615 178.463 324.502 178.962 325.222 179.591C325.942 180.219 326.496 180.995 326.884 181.901C327.272 182.807 327.475 183.786 327.475 184.858C327.475 186.355 327.142 187.612 326.478 188.647C325.813 189.682 324.926 190.477 323.818 191.013C324.982 191.568 325.942 192.381 326.662 193.453C327.382 194.525 327.752 195.819 327.752 197.353V197.334ZM312.979 181.864V189.146H318.574C319.848 189.146 320.809 188.795 321.492 188.111C322.175 187.427 322.507 186.559 322.507 185.542C322.489 184.526 322.138 183.657 321.473 182.936C320.809 182.215 319.83 181.864 318.574 181.864H312.979ZM322.858 196.521C322.858 195.43 322.489 194.543 321.769 193.878C321.03 193.213 320.088 192.88 318.925 192.88H312.998V200.088H318.925C320.125 200.088 321.067 199.774 321.787 199.127C322.507 198.48 322.858 197.611 322.858 196.521Z" fill="white"/>
<path d="M350.927 189.775H347.418V204.117H342.691V189.775H339.146V185.783H342.691V180.09H347.418V185.783H350.927V189.775Z" fill="white"/>
<path d="M362.763 184.156C364.96 184.156 366.844 184.692 368.413 185.764C369.983 186.836 371.017 188.259 371.552 190.015L367.287 191.734C366.991 190.792 366.437 190.034 365.625 189.461C364.831 188.888 363.889 188.611 362.836 188.611C361.322 188.611 360.122 189.11 359.273 190.126C358.423 191.143 357.998 192.492 357.998 194.174C357.998 195.856 358.442 197.223 359.31 198.203C360.177 199.164 361.359 199.663 362.836 199.663C363.907 199.663 364.831 199.386 365.643 198.85C366.456 198.295 367.028 197.575 367.361 196.669L371.552 198.222C370.943 200.051 369.835 201.475 368.247 202.547C366.659 203.619 364.812 204.136 362.726 204.136C361.285 204.136 359.956 203.896 358.774 203.415C357.574 202.935 356.558 202.269 355.709 201.401C354.859 200.532 354.195 199.497 353.733 198.259C353.271 197.02 353.031 195.671 353.031 194.211C353.031 192.751 353.271 191.346 353.733 190.145C354.195 188.925 354.859 187.871 355.709 186.984C356.558 186.097 357.592 185.413 358.793 184.933C359.993 184.452 361.322 184.212 362.763 184.212V184.156Z" fill="white"/>
<path d="M382.521 184.156C383.998 184.156 385.327 184.397 386.546 184.896C387.746 185.395 388.78 186.078 389.648 186.966C390.516 187.834 391.181 188.888 391.661 190.108C392.141 191.328 392.381 192.658 392.381 194.118C392.381 195.579 392.141 196.909 391.661 198.129C391.181 199.349 390.498 200.403 389.648 201.271C388.78 202.14 387.746 202.842 386.546 203.323C385.346 203.822 383.998 204.062 382.521 204.062C381.043 204.062 379.695 203.822 378.477 203.323C377.258 202.824 376.205 202.14 375.356 201.271C374.488 200.384 373.823 199.349 373.343 198.129C372.863 196.909 372.623 195.579 372.623 194.118C372.623 192.658 372.863 191.328 373.343 190.108C373.823 188.888 374.507 187.834 375.356 186.966C376.224 186.078 377.258 185.395 378.477 184.896C379.695 184.397 381.043 184.156 382.521 184.156ZM382.502 199.608C383.961 199.608 385.143 199.09 386.048 198.074C386.952 197.057 387.414 195.726 387.414 194.1C387.414 192.473 386.952 191.143 386.048 190.126C385.143 189.11 383.961 188.592 382.502 188.592C381.043 188.592 379.843 189.11 378.938 190.126C378.052 191.143 377.59 192.473 377.59 194.1C377.59 195.726 378.033 197.057 378.938 198.074C379.843 199.09 381.025 199.608 382.502 199.608Z" fill="white"/>
<path d="M330.152 155.397V170.184H326.035L325.794 167.504C325.019 168.557 323.948 169.315 322.563 169.814C321.178 170.313 319.719 170.572 318.15 170.572C316.377 170.59 314.752 170.276 313.275 169.629C311.798 168.982 310.523 168.058 309.452 166.894C308.4 165.711 307.587 164.325 307.015 162.717C306.443 161.109 306.166 159.371 306.202 157.486C306.202 155.527 306.498 153.734 307.107 152.108C307.717 150.481 308.566 149.076 309.674 147.894C310.782 146.711 312.111 145.786 313.663 145.121C315.214 144.456 316.949 144.123 318.851 144.123C321.566 144.123 323.911 144.77 325.887 146.045C327.881 147.321 329.248 149.039 329.968 151.165L325.684 152.902C325.13 151.442 324.243 150.352 323.043 149.668C321.843 148.966 320.458 148.614 318.888 148.614C317.688 148.614 316.599 148.836 315.638 149.261C314.678 149.686 313.847 150.296 313.164 151.073C312.481 151.849 311.964 152.791 311.594 153.9C311.225 155.009 311.059 156.229 311.059 157.578C311.059 158.928 311.244 160.129 311.594 161.201C311.945 162.273 312.462 163.16 313.127 163.881C313.792 164.602 314.586 165.156 315.528 165.544C316.469 165.933 317.503 166.117 318.648 166.117C320.366 166.117 321.898 165.692 323.246 164.861C324.631 163.973 325.444 162.55 325.684 160.61V159.556H318.224V155.379H330.134L330.152 155.397Z" fill="white"/>
<path d="M344.463 150.795C345.165 150.795 345.922 150.887 346.735 151.072V155.785C346.033 155.6 345.294 155.508 344.537 155.508C342.894 155.508 341.62 156.026 340.715 157.042C339.81 158.059 339.367 159.5 339.367 161.33V170.571H334.215V151.349H338.924L339.201 153.346C339.625 152.514 340.308 151.867 341.269 151.442C342.229 151.017 343.281 150.795 344.463 150.795Z" fill="white"/>
<path d="M366.363 162.679H352.662C352.809 163.955 353.308 164.897 354.176 165.544C355.044 166.173 356.078 166.505 357.278 166.505C359.328 166.505 360.805 165.637 361.673 163.899L365.625 165.47C364.96 167.078 363.889 168.335 362.375 169.222C360.861 170.109 359.162 170.553 357.26 170.553C355.912 170.553 354.675 170.313 353.567 169.851C352.459 169.389 351.48 168.742 350.667 167.91C349.855 167.078 349.246 166.08 348.802 164.879C348.359 163.696 348.138 162.384 348.138 160.979C348.138 159.574 348.359 158.225 348.802 157.061C349.246 155.896 349.855 154.88 350.667 154.011C351.48 153.161 352.44 152.495 353.585 152.033C354.73 151.571 355.967 151.331 357.334 151.331C358.7 151.331 359.9 151.553 361.008 152.015C362.116 152.477 363.058 153.124 363.852 153.956C364.627 154.806 365.237 155.822 365.68 157.005C366.123 158.188 366.345 159.519 366.345 160.979V162.661L366.363 162.679ZM361.488 159.371C361.396 158.022 360.971 157.005 360.251 156.321C359.513 155.638 358.534 155.286 357.278 155.286C356.023 155.286 355.025 155.638 354.231 156.34C353.456 157.042 352.957 158.04 352.736 159.371H361.488Z" fill="white"/>
<path d="M386.602 162.679H372.919C373.066 163.955 373.565 164.897 374.433 165.544C375.301 166.173 376.335 166.487 377.517 166.487C379.566 166.487 381.025 165.618 381.911 163.881L385.863 165.452C385.198 167.06 384.127 168.317 382.632 169.204C381.136 170.091 379.437 170.535 377.535 170.535C376.187 170.535 374.968 170.294 373.842 169.832C372.716 169.37 371.755 168.723 370.943 167.892C370.13 167.06 369.521 166.062 369.078 164.879C368.635 163.696 368.413 162.402 368.413 160.979C368.413 159.556 368.635 158.225 369.078 157.061C369.521 155.896 370.13 154.88 370.943 154.03C371.755 153.179 372.716 152.514 373.86 152.052C374.987 151.59 376.243 151.35 377.609 151.35C378.975 151.35 380.176 151.571 381.284 152.033C382.392 152.496 383.333 153.124 384.127 153.974C384.903 154.824 385.512 155.822 385.955 157.005C386.399 158.188 386.62 159.519 386.62 160.979V162.661L386.602 162.679ZM381.745 159.39C381.653 158.04 381.228 157.042 380.508 156.358C379.769 155.675 378.791 155.342 377.554 155.342C376.316 155.342 375.301 155.693 374.525 156.377C373.75 157.079 373.251 158.077 373.029 159.39H381.764H381.745Z" fill="white"/>
<path d="M408.391 158.761V170.553H403.331V159.833C403.331 158.114 402.925 156.931 402.131 156.321C401.337 155.693 400.451 155.397 399.472 155.397C398.346 155.397 397.33 155.748 396.425 156.451C395.52 157.153 395.077 158.317 395.077 159.981V170.59H390.018V151.368H394.819L394.966 153.272C395.502 152.532 396.277 151.922 397.293 151.479C398.309 151.035 399.398 150.795 400.58 150.795C403.073 150.795 405.012 151.479 406.36 152.865C407.708 154.251 408.391 156.21 408.391 158.761Z" fill="white"/>
</svg>
