<svg width="758" height="776" viewBox="0 0 758 776" fill="none" xmlns="http://www.w3.org/2000/svg">
<path d="M364.118 774.056L1 303.192L575.974 235.878L364.118 774.056Z" fill="#FB4A1E" stroke="#FB4A1E"/>
<path d="M341.607 414.268C344.9 414.268 347.856 414.885 350.477 416.12C353.098 417.355 355.24 419.128 356.902 421.439L354.217 423.481L354.104 423.343C350.924 419.509 346.854 417.592 341.895 417.592C337.804 417.592 334.28 419.017 331.323 421.866C328.366 424.716 326.888 428.207 326.888 432.339C326.888 436.471 328.334 439.922 331.227 442.692C334.12 445.463 337.74 446.848 342.087 446.848C346.945 446.848 350.989 444.98 354.217 441.244L356.902 443.286L356.771 443.455C355.098 445.588 353 447.218 350.477 448.344C347.888 449.5 345.028 450.077 341.895 450.077C336.429 450.077 331.954 448.368 328.47 444.948C324.986 441.529 323.244 437.207 323.244 431.983C323.244 428.753 324.051 425.769 325.665 423.03C327.28 420.291 329.517 418.146 332.378 416.595C335.239 415.043 338.315 414.268 341.607 414.268ZM378.585 414.366L378.585 417.708C375.332 418.1 372.551 419.478 370.244 421.843C367.479 424.676 366.096 428.128 366.096 432.196C366.096 436.265 367.519 439.708 370.364 442.526C372.704 444.844 375.444 446.209 378.585 446.62L378.585 449.966C376.103 449.698 373.762 448.952 371.562 447.727C368.749 446.159 366.536 443.998 364.922 441.244C363.308 438.489 362.5 435.513 362.5 432.315C362.5 429.022 363.3 425.983 364.898 423.196C366.496 420.41 368.685 418.225 371.466 416.642C373.682 415.381 376.055 414.622 378.585 414.366ZM383.541 414.494C385.703 414.83 387.76 415.538 389.71 416.618C392.539 418.186 394.76 420.355 396.374 423.125C397.988 425.895 398.795 428.903 398.795 432.149C398.795 435.394 397.996 438.402 396.398 441.172C394.8 443.943 392.602 446.12 389.806 447.703C387.836 448.817 385.748 449.54 383.541 449.87L383.541 446.502C386.353 445.99 388.825 444.697 390.956 442.621C393.785 439.866 395.2 436.384 395.2 432.172C395.2 428.088 393.769 424.637 390.908 421.819C388.776 419.719 386.321 418.402 383.541 417.867L383.541 414.494ZM285.257 445.851V449.223H265.647V445.85L285.257 445.851ZM294.979 415.122V445.946H308.212V449.223H291.479V415.122H294.979ZM316.783 415.122V449.223H313.331V415.122H316.783ZM406.647 415.122L429.517 441.244V415.122H432.921V449.223H432.154L409.428 423.434V449.223H405.88V415.122H406.647ZM285.257 429.133V432.457L265.647 432.457V429.133L285.257 429.133ZM285.401 415.122V418.494L265.647 418.494V415.122H285.401Z" fill="white"/>
<path opacity="0.104143" d="M216.933 412.053C223.436 412.053 228.708 406.827 228.708 400.381C228.708 393.935 223.436 388.71 216.933 388.71C210.43 388.71 205.158 393.935 205.158 400.381C205.158 406.827 210.43 412.053 216.933 412.053Z" stroke="white" stroke-width="0.156877" stroke-dasharray="0.33 0.55"/>
<path opacity="0.104143" d="M215.686 473.48C222.189 473.48 227.461 468.254 227.461 461.808C227.461 455.362 222.189 450.137 215.686 450.137C209.183 450.137 203.911 455.362 203.911 461.808C203.911 468.254 209.183 473.48 215.686 473.48Z" stroke="white" stroke-width="0.156877" stroke-dasharray="0.33 0.55"/>
<path opacity="0.104143" d="M264.029 412.053C270.532 412.053 275.803 406.827 275.803 400.381C275.803 393.935 270.532 388.71 264.029 388.71C257.526 388.71 252.254 393.935 252.254 400.381C252.254 406.827 257.526 412.053 264.029 412.053Z" stroke="white" stroke-width="0.156877" stroke-dasharray="0.33 0.55"/>
<path opacity="0.104143" d="M262.788 473.48C269.291 473.48 274.563 468.254 274.563 461.808C274.563 455.362 269.291 450.137 262.788 450.137C256.285 450.137 251.014 455.362 251.014 461.808C251.014 468.254 256.285 473.48 262.788 473.48Z" stroke="white" stroke-width="0.156877" stroke-dasharray="0.33 0.55"/>
<path fill-rule="evenodd" clip-rule="evenodd" d="M256.094 401.241C256.094 392.49 264.071 387.48 272.048 392.219C268.724 389.27 264.358 387.48 259.576 387.48C249.165 387.48 240.724 395.959 240.724 406.419V413.378C240.724 415.871 238.714 417.892 236.231 417.893L213.863 417.902C211.382 417.907 209.37 415.883 209.37 413.39V401.241C209.37 392.49 217.347 387.48 225.324 392.219C222 389.27 217.634 387.48 212.852 387.48C202.441 387.48 194 395.959 194 406.419V454.543C194 465.002 202.441 473.48 212.852 473.48C217.634 473.48 222 471.691 225.324 468.743C217.347 473.48 209.37 468.471 209.37 459.721V437.858C209.37 435.365 211.381 433.343 213.863 433.342L236.231 433.333C238.714 433.332 240.728 435.352 240.733 437.845L240.761 454.543C240.761 465.002 249.202 473.48 259.613 473.48C264.395 473.48 268.761 471.691 272.085 468.743C264.108 473.48 256.132 468.471 256.132 459.721L256.094 401.241Z" fill="white"/>
</svg>
